<?xml version="1.0" standalone="no"?>
<!DOCTYPE svg PUBLIC "-//W3C//DTD SVG 20010904//EN"
 "http://www.w3.org/TR/2001/REC-SVG-20010904/DTD/svg10.dtd">
<svg version="1.0" xmlns="http://www.w3.org/2000/svg"
 width="1024.000000pt" height="531.000000pt" viewBox="0 0 1024.000000 531.000000"
 preserveAspectRatio="xMidYMid meet">

<g transform="translate(0.000000,531.000000) scale(0.100000,-0.100000)"
fill="#000000" stroke="none">
<path d="M4845 5298 c-376 -18 -876 -109 -1260 -229 -392 -122 -855 -337
-1235 -575 -306 -192 -759 -571 -983 -824 -355 -401 -559 -690 -770 -1095
-292 -559 -460 -1090 -546 -1720 -36 -257 -58 -642 -42 -703 45 -166 254 -207
349 -68 32 47 41 107 53 334 19 383 98 824 214 1194 157 505 454 1074 760
1457 307 384 472 549 856 856 282 226 666 447 1076 622 460 195 1046 325 1586
353 526 26 1112 -50 1639 -215 505 -157 1074 -454 1457 -760 384 -307 549
-472 856 -856 306 -383 603 -952 760 -1457 116 -370 195 -811 214 -1194 6
-114 16 -229 21 -255 22 -97 86 -154 178 -161 98 -6 176 52 203 150 16 61 -6
446 -42 703 -86 630 -254 1161 -546 1720 -158 303 -301 526 -485 755 -330 411
-487 568 -898 898 -322 258 -725 492 -1175 684 -511 217 -1144 359 -1730 388
-230 11 -262 11 -510 -2z"/>
</g>
</svg>
