<?xml version="1.0" encoding="UTF-8"?>
<svg version="1.1" xmlns="http://www.w3.org/2000/svg" width="512" height="512">
<path d="M0 0 C1.2684375 -0.01611328 2.536875 -0.03222656 3.84375 -0.04882812 C32.01868418 -0.06320309 56.9051894 12.42925523 76.9375 31.5625 C87.46851331 42.49148765 94.24617478 54.46009879 100.25 68.3125 C101.40757812 67.96316406 102.56515625 67.61382812 103.7578125 67.25390625 C105.29681839 66.79408132 106.83588407 66.33445648 108.375 65.875 C109.13554687 65.64490234 109.89609375 65.41480469 110.6796875 65.17773438 C130.95137683 59.14865436 152.08460265 61.4938076 170.77416992 71.17333984 C176.04539299 74.04469421 180.72079569 77.36953925 185.25 81.3125 C185.83652344 81.75722656 186.42304688 82.20195312 187.02734375 82.66015625 C199.69140687 92.50998312 207.06081881 108.18216323 211.25 123.3125 C211.25 123.9725 211.25 124.6325 211.25 125.3125 C212.1678125 125.15265625 213.085625 124.9928125 214.03125 124.828125 C240.17347195 121.12726828 266.8066843 126.76759775 288.25 142.3125 C292.53893726 145.69257315 296.41429308 149.43251363 300.25 153.3125 C301.05050781 154.10269531 301.85101563 154.89289063 302.67578125 155.70703125 C313.20970913 166.67759863 319.74765337 179.9199986 324.25 194.3125 C324.5903125 195.35921875 324.930625 196.4059375 325.28125 197.484375 C331.7356937 221.50924877 327.38935305 248.64244125 315.625 270.3046875 C301.57782569 293.26141218 281.42451036 308.35830871 255.9765625 316.41796875 C245.55855267 318.91872792 235.37528628 319.60439743 224.69009399 319.57319641 C223.26650652 319.57622438 221.84292066 319.58011707 220.41933763 319.58478898 C216.54409685 319.59499447 212.66894934 319.59290638 208.79370117 319.58860838 C204.60000126 319.58612752 200.40632303 319.59517207 196.21263123 319.60264587 C188.01108153 319.615357 179.80956462 319.61719108 171.60800673 319.61484561 C164.93796123 319.61305838 158.26792564 319.61482076 151.59788132 319.61907005 C150.17077019 319.61996284 150.17077019 319.61996284 148.71482854 319.62087366 C146.78168945 319.62208548 144.84855037 319.62329961 142.91541128 319.62451603 C124.81060435 319.63537761 106.70581607 319.63323555 88.6010081 319.62713119 C72.06087007 319.62196247 55.52079095 319.63321877 38.98066457 319.65222941 C21.97009834 319.6716299 4.95955995 319.67985998 -12.0510174 319.67610615 C-21.59029939 319.67419757 -31.12953124 319.67664827 -40.66880417 319.69082069 C-48.78913901 319.70276363 -56.90939286 319.70410676 -65.02972887 319.69203053 C-69.16732459 319.68616243 -73.30477236 319.68498472 -77.44235802 319.69703293 C-81.23978624 319.70796155 -85.03694424 319.70470658 -88.8343602 319.69077124 C-90.83780004 319.68691125 -92.84125221 319.697614 -94.84466302 319.70906812 C-120.35871766 319.55880242 -142.30813863 310.03009238 -160.8125 292.625 C-178.45802013 274.33911825 -185.40776182 251.79067539 -185.22509766 226.84985352 C-184.98515736 217.80834653 -183.74324473 209.85900139 -180.75 201.3125 C-180.399375 200.27609375 -180.04875 199.2396875 -179.6875 198.171875 C-171.24603396 175.77854148 -154.15307843 159.05763699 -132.6953125 149.03515625 C-122.30114461 144.39122106 -111.98222757 142.49320442 -100.75 141.3125 C-101.02714844 140.22710937 -101.30429688 139.14171875 -101.58984375 138.0234375 C-101.9558563 136.57815719 -102.3217346 135.13284288 -102.6875 133.6875 C-102.86990234 132.97464844 -103.05230469 132.26179687 -103.24023438 131.52734375 C-103.41748047 130.82480469 -103.59472656 130.12226563 -103.77734375 129.3984375 C-104.02085571 128.4401001 -104.02085571 128.4401001 -104.26928711 127.46240234 C-110.09512908 101.4073671 -104.59637066 73.98867877 -91.49609375 51.0546875 C-75.8939367 26.55197106 -53.07286344 9.2473102 -24.75 2.3125 C-24.06244629 2.13662354 -23.37489258 1.96074707 -22.66650391 1.77954102 C-15.12637118 0.03527456 -7.71188991 -0.01935715 0 0 Z " fill="#A3D4F7" transform="translate(184.75,96.6875)"/>
</svg>
