<?xml version="1.0" encoding="UTF-8"?>
<svg version="1.1" xmlns="http://www.w3.org/2000/svg" width="512" height="512">
<path d="M0 0 C1.31097656 0.01353516 1.31097656 0.01353516 2.6484375 0.02734375 C3.30070313 0.03894531 3.95296875 0.05054688 4.625 0.0625 C5.48989767 2.95960478 5.89508619 4.47330981 4.61206055 7.2722168 C3.81989136 8.38077026 3.81989136 8.38077026 3.01171875 9.51171875 C2.42801514 10.35025391 1.84431152 11.18878906 1.24291992 12.05273438 C0.60588135 12.94283203 -0.03115723 13.83292969 -0.6875 14.75 C-37.34085069 67.92698805 -50.65450333 133.31149597 -39.11181641 196.82373047 C-37.16467707 206.75466404 -34.49124572 216.43907856 -31.375 226.0625 C-31.12411621 226.83980469 -30.87323242 227.61710938 -30.61474609 228.41796875 C-21.69234122 255.45486377 -7.94168895 279.79097303 9.625 302.0625 C10.2754126 302.89080322 10.2754126 302.89080322 10.93896484 303.73583984 C22.51190307 318.32195687 35.91602766 331.87366974 50.97021484 342.85205078 C52.61744131 344.05697093 54.24071141 345.28949182 55.86328125 346.52734375 C85.12488282 368.50499735 119.8717586 382.23175813 155.625 389.0625 C156.53266113 389.24039062 157.44032227 389.41828125 158.37548828 389.6015625 C184.15092271 394.42817181 212.58254669 393.8042188 238.36230469 389.43017578 C240.77123809 389.0387371 243.17953642 388.70232829 245.6015625 388.40234375 C246.32682129 388.31202881 247.05208008 388.22171387 247.79931641 388.12866211 C249.625 388.0625 249.625 388.0625 251.625 389.0625 C252.42047453 394.4597519 250.61383711 397.14751481 247.56225586 401.3293457 C246.98483643 402.08691162 246.40741699 402.84447754 245.8125 403.625 C244.92606812 404.8164563 244.92606812 404.8164563 244.02172852 406.03198242 C238.82607444 412.94905873 233.38078104 419.60663637 227.625 426.0625 C227.15771484 426.59149902 226.69042969 427.12049805 226.20898438 427.66552734 C205.02822574 451.54762089 179.83831422 470.26492911 151.625 485.0625 C150.55185547 485.63266846 150.55185547 485.63266846 149.45703125 486.21435547 C127.78424477 497.58862069 103.65960128 504.81644571 79.625 509.0625 C78.79806641 509.22331055 77.97113281 509.38412109 77.11914062 509.54980469 C49.38845655 514.84900949 17.2980593 514.46408378 -10.375 509.0625 C-11.27202637 508.90152832 -12.16905273 508.74055664 -13.09326172 508.57470703 C-36.49719555 504.33978697 -59.06964498 496.59357684 -80.375 486.0625 C-81.11927246 485.69656738 -81.86354492 485.33063477 -82.63037109 484.95361328 C-107.13862415 472.77209185 -128.56104557 455.81201095 -148.375 437.0625 C-149.055625 436.42441406 -149.73625 435.78632813 -150.4375 435.12890625 C-155.56423887 430.18017914 -159.94106045 424.62790738 -164.375 419.0625 C-165.26406358 417.96463368 -166.15339406 416.86698347 -167.04296875 415.76953125 C-209.07041233 363.55768322 -229.00645955 295.38788003 -222.02294922 228.70068359 C-215.90555547 175.39833781 -195.05236756 124.06386671 -158.45703125 84.328125 C-156.5505956 82.25357964 -154.7073439 80.13984069 -152.875 78 C-146.52669839 70.74895825 -139.69730394 64.31386411 -132.16796875 58.30078125 C-130.37812652 56.86640419 -128.60764294 55.40732266 -126.86328125 53.91796875 C-113.33072293 42.41633037 -98.08571765 33.25449265 -82.375 25.0625 C-81.6639209 24.68528809 -80.9528418 24.30807617 -80.22021484 23.91943359 C-57.33463849 11.9064587 -26.14833145 -0.35335583 0 0 Z " fill="#EED945" transform="translate(241.375,-0.0625)"/>
<path d="M0 0 C1.39126758 3.76091042 0.55168167 6.07652849 -0.6875 9.8125 C-2.68566651 16.4175504 -4.02325016 23.01260602 -5.1875 29.8125 C-5.35403076 30.77841064 -5.52056152 31.74432129 -5.69213867 32.73950195 C-7.25695547 42.08745578 -8.16207305 51.20192636 -8.23828125 60.68359375 C-8.25297203 62.19089806 -8.25297203 62.19089806 -8.26795959 63.72865295 C-8.42880052 84.49474802 -8.56583452 104.6444251 -4 125 C-3.57151802 127.08591767 -3.14313539 129.17185574 -2.71484375 131.2578125 C6.34109738 173.45849816 27.29686388 214.56368289 57 246 C58.17229678 247.34929564 59.33915821 248.70333672 60.5 250.0625 C67.65789835 258.23826463 75.49441161 265.25763007 84 272 C85.07238043 272.87406123 86.14397048 273.7490929 87.21484375 274.625 C124.70388004 305.02872271 169.51186092 322.32800527 217 329 C217.73935791 329.10602539 218.47871582 329.21205078 219.24047852 329.32128906 C228.33124289 330.42704307 237.54432325 330.24395875 246.6875 330.25 C247.60384216 330.25067474 248.52018433 330.25134949 249.46429443 330.25204468 C263.52907278 330.23560129 277.15319186 329.64177299 291 327 C291.8854248 326.8443457 292.77084961 326.68869141 293.68310547 326.52832031 C325.2354421 320.91577969 356.1162156 309.12777926 383.04272461 291.70361328 C387.63230971 289.05966671 392.07448546 287.83381252 397.30078125 287.18359375 C398.27853516 287.05919922 399.25628906 286.93480469 400.26367188 286.80664062 C401.7728418 286.62391602 401.7728418 286.62391602 403.3125 286.4375 C404.30701172 286.31181641 405.30152344 286.18613281 406.32617188 286.05664062 C408.28531272 285.81094404 410.24510952 285.57041405 412.20556641 285.33544922 C414.02664795 285.11684306 415.84673338 284.88971837 417.66552734 284.65283203 C423.77690291 283.88845146 423.77690291 283.88845146 426 285 C426.79547453 290.3972519 424.98883711 293.08501481 421.93725586 297.2668457 C421.35983643 298.02441162 420.78241699 298.78197754 420.1875 299.5625 C419.30106812 300.7539563 419.30106812 300.7539563 418.39672852 301.96948242 C413.20107444 308.88655873 407.75578104 315.54413637 402 322 C401.53271484 322.52899902 401.06542969 323.05799805 400.58398438 323.60302734 C379.40322574 347.48512089 354.21331422 366.20242911 326 381 C324.92685547 381.57016846 324.92685547 381.57016846 323.83203125 382.15185547 C302.15924477 393.52612069 278.03460128 400.75394571 254 405 C253.17306641 405.16081055 252.34613281 405.32162109 251.49414062 405.48730469 C223.76345655 410.78650949 191.6730593 410.40158378 164 405 C163.10297363 404.83902832 162.20594727 404.67805664 161.28173828 404.51220703 C137.87780445 400.27728697 115.30535502 392.53107684 94 382 C93.25572754 381.63406738 92.51145508 381.26813477 91.74462891 380.89111328 C67.23637585 368.70959185 45.81395443 351.74951095 26 333 C25.319375 332.36191406 24.63875 331.72382813 23.9375 331.06640625 C18.81076113 326.11767914 14.43393955 320.56540738 10 315 C9.11093642 313.90213368 8.22160594 312.80448347 7.33203125 311.70703125 C-34.69541233 259.49518322 -54.63145955 191.32538003 -47.64794922 124.63818359 C-43.064104 84.69802072 -29.75083646 29.75083646 0 0 Z " fill="#EDC147" transform="translate(67,104)"/>
</svg>
