<?xml version="1.0" encoding="UTF-8"?>
<svg version="1.1" xmlns="http://www.w3.org/2000/svg" width="512" height="512">
<path d="M0 0 C13.51230699 11.71483199 23.74515153 25.27850241 31.875 41.1875 C35.43266889 39.86859233 38.70474898 38.22484731 42.03857422 36.42016602 C54.22393318 29.92707146 67.97882391 25.55512371 81.875 25.1875 C82.65746094 25.13722656 83.43992187 25.08695313 84.24609375 25.03515625 C109.91527917 24.05839881 134.36440143 34.07244327 153.1953125 51.16015625 C167.50323398 64.5858698 178.29716045 82.69679313 181.875 102.1875 C181.875 103.5075 181.875 104.8275 181.875 106.1875 C182.45765625 106.33445313 183.0403125 106.48140625 183.640625 106.6328125 C202.96889031 111.92073414 218.99523476 124.59235768 229.1875 141.875 C239.35786833 159.94529518 241.89788279 181.9599379 236.85180664 202.01708984 C233.4255116 214.08689554 227.34390862 224.94556727 218.875 234.1875 C218.31167969 234.81914062 217.74835938 235.45078125 217.16796875 236.1015625 C204.09853442 249.99740134 184.67779038 258.55667701 165.6772185 259.3151505 C164.57672857 259.316397 163.47623865 259.31764349 162.34240055 259.31892776 C161.06340761 259.32276891 159.78441467 259.32661005 158.46666437 259.3305676 C157.05981253 259.32978749 155.65296074 259.32890873 154.24610901 259.32794189 C152.741793 259.33052773 151.23747768 259.3335415 149.7331633 259.3369453 C145.60688909 259.34499315 141.48063229 259.34680363 137.35435116 259.34754276 C132.90081578 259.34939723 128.44728934 259.35694662 123.99375916 259.36367798 C114.25787391 259.37724694 104.5219928 259.38328402 94.78609967 259.38768864 C88.70248595 259.39045397 82.61887381 259.3946919 76.53526115 259.39919281 C59.67939256 259.41138451 42.82352523 259.42168343 25.96765232 259.4250679 C24.35009 259.42539725 24.35009 259.42539725 22.69984966 259.42573325 C21.07848929 259.42606067 21.07848929 259.42606067 19.42437416 259.4263947 C17.23416936 259.42683816 15.04396456 259.42728472 12.85375977 259.42773438 C11.22414547 259.42806652 11.22414547 259.42806652 9.56160968 259.42840537 C-8.02904044 259.43235059 -25.61964906 259.44979661 -43.21028315 259.4730939 C-61.28626203 259.49683994 -79.36222012 259.50927126 -97.43821484 259.51043582 C-107.58068894 259.51135085 -117.72310899 259.51705955 -127.86556816 259.53525543 C-136.50496994 259.55070049 -145.14430096 259.55575105 -153.78371393 259.54751733 C-158.18670242 259.54362614 -162.58954864 259.54446499 -166.99251938 259.55857468 C-171.03386677 259.57140628 -175.07496632 259.57003592 -179.11631382 259.55798396 C-180.56792983 259.55604283 -182.01956397 259.55903087 -183.47115462 259.56782833 C-204.76380106 259.68856369 -223.47784246 254.83762427 -240.125 241.1875 C-240.84042969 240.63449219 -241.55585938 240.08148438 -242.29296875 239.51171875 C-256.72022769 227.8192207 -265.51189607 208.60785318 -267.875 190.4375 C-267.98145833 189.02238322 -268.06494398 187.6053442 -268.125 186.1875 C-268.16496094 185.43597656 -268.20492188 184.68445313 -268.24609375 183.91015625 C-268.86213142 161.55161254 -260.31008595 141.39794545 -245.125 125.1875 C-237.39693792 117.72592282 -228.65162629 112.91116607 -219.125 108.1875 C-218.31933594 107.78402344 -217.51367188 107.38054687 -216.68359375 106.96484375 C-215.91208984 106.58005859 -215.91208984 106.58005859 -215.125 106.1875 C-215.14820313 105.30191406 -215.17140625 104.41632813 -215.1953125 103.50390625 C-215.68021064 70.21911221 -205.36349311 39.81897132 -184.125 14.1875 C-183.45726562 13.36636719 -182.78953125 12.54523437 -182.1015625 11.69921875 C-177.05813813 5.73974383 -171.29460682 0.9444796 -165.125 -3.8125 C-164.28324219 -4.48152344 -163.44148438 -5.15054687 -162.57421875 -5.83984375 C-114.56973858 -42.62628152 -45.51714848 -38.38222569 0 0 Z " fill="#61C3F7" transform="translate(270.125,34.8125)"/>
<path d="M0 0 C2.41478576 4.82957152 -0.0574 11.56755561 -1.62646484 16.45629883 C-2.3111884 18.4600231 -3.00651465 20.46014724 -3.7109375 22.45703125 C-4.0797403 23.52241623 -4.44854309 24.58780121 -4.82852173 25.68547058 C-5.60571222 27.92333801 -6.38756158 30.15959236 -7.17382812 32.39428711 C-8.37595777 35.81522555 -9.56006914 39.24202389 -10.7421875 42.66992188 C-11.50154286 44.84932841 -12.26192403 47.02837785 -13.0234375 49.20703125 C-13.55328751 50.74143608 -13.55328751 50.74143608 -14.09384155 52.30683899 C-14.43074005 53.25850449 -14.76763855 54.21016998 -15.11474609 55.19067383 C-15.5532338 56.442351 -15.5532338 56.442351 -16.00057983 57.71931458 C-17.50754977 61.15823296 -18.86068842 63.52028986 -22.375 65 C-25 65 -25 65 -27.875 63.5625 C-30 61 -30 61 -29.83520508 57.47045898 C-29.04358617 52.43267016 -27.4318903 47.71475453 -25.76171875 42.91015625 C-25.43967972 41.96619492 -25.11764069 41.02223358 -24.7858429 40.04966736 C-24.10610925 38.06252858 -23.42262573 36.07666896 -22.7355957 34.09204102 C-21.69288705 31.07807137 -20.66289275 28.05998638 -19.63476562 25.04101562 C-18.96949867 23.10130556 -18.30350668 21.16184399 -17.63671875 19.22265625 C-17.33239426 18.33175797 -17.02806976 17.44085968 -16.71452332 16.52296448 C-15.24948466 12.30522709 -13.71382222 8.11878661 -12.02270508 3.98608398 C-11.73067703 3.26621811 -11.43864899 2.54635223 -11.13777161 1.80467224 C-8.14302346 -2.94543649 -4.62585801 -2.05593689 0 0 Z " fill="#7AD8F7" transform="translate(281,443)"/>
<path d="M0 0 C2.34311215 4.6862243 0.09872208 11.08168006 -1.42700195 15.82617188 C-2.02078497 17.54384595 -2.62500218 19.25793988 -3.23828125 20.96875 C-3.56032028 21.88910034 -3.88235931 22.80945068 -4.2141571 23.75769043 C-4.89307506 25.69209553 -5.57656389 27.62490191 -6.2644043 29.55615234 C-7.30834502 32.48832966 -8.33797112 35.42522481 -9.36523438 38.36328125 C-10.03041592 40.25289799 -10.69640501 42.14223068 -11.36328125 44.03125 C-11.66760574 44.89713745 -11.97193024 45.7630249 -12.28547668 46.65515137 C-13.77162251 50.81723717 -15.33192119 54.9410091 -17.03979492 59.01757812 C-17.34342453 59.7433606 -17.64705414 60.46914307 -17.95988464 61.21691895 C-19 63 -19 63 -22 64.6875 C-25 65 -25 65 -27.3125 64.5625 C-29.40918026 62.62112939 -29.72032088 60.9988972 -30.05163574 58.20803833 C-29.94043111 53.45272596 -28.05578521 49.0301689 -26.484375 44.58984375 C-26.11274231 43.50417618 -25.74110962 42.41850861 -25.35821533 41.29994202 C-24.57155118 39.01059378 -23.7776663 36.72371563 -22.97705078 34.43920898 C-21.75467965 30.95085461 -20.55315431 27.45588191 -19.35546875 23.95898438 C-18.58714186 21.73135508 -17.81764934 19.5041274 -17.046875 17.27734375 C-16.50761383 15.71620094 -16.50761383 15.71620094 -15.9574585 14.1235199 C-11.40807534 1.16530373 -11.40807534 1.16530373 -8.1875 -1.5 C-4.98369816 -2.23229756 -2.950011 -1.311116 0 0 Z " fill="#7AD8F7" transform="translate(396,443)"/>
<path d="M0 0 C2.75 1.3125 2.75 1.3125 3.75 3.3125 C3.36599841 10.61445907 1.46098883 16.90390224 -0.9609375 23.76953125 C-1.3297403 24.83491623 -1.69854309 25.90030121 -2.07852173 26.99797058 C-2.85571222 29.23583801 -3.63756158 31.47209236 -4.42382812 33.70678711 C-5.62595777 37.12772555 -6.81006914 40.55452389 -7.9921875 43.98242188 C-8.75154286 46.16182841 -9.51192403 48.34087785 -10.2734375 50.51953125 C-10.80328751 52.05393608 -10.80328751 52.05393608 -11.34384155 53.61933899 C-11.68074005 54.57100449 -12.01763855 55.52266998 -12.36474609 56.50317383 C-12.8032338 57.754851 -12.8032338 57.754851 -13.25057983 59.03181458 C-14.75754977 62.47073296 -16.11068842 64.83278986 -19.625 66.3125 C-22.25 66.3125 -22.25 66.3125 -25.125 64.875 C-27.25 62.3125 -27.25 62.3125 -27.12402344 58.90551758 C-26.22077931 53.16556514 -24.27095485 47.74179906 -22.390625 42.26171875 C-21.81124176 40.55807915 -21.81124176 40.55807915 -21.22015381 38.82002258 C-20.40392008 36.43089622 -19.58338066 34.04323702 -18.75878906 31.65698242 C-17.50023795 28.00069128 -16.26929347 24.33582361 -15.0390625 20.66992188 C-14.24125932 18.34577818 -13.44183572 16.02218995 -12.640625 13.69921875 C-12.27584045 12.60236252 -11.91105591 11.50550629 -11.53521729 10.37541199 C-11.1784491 9.36038101 -10.82168091 8.34535004 -10.45410156 7.29956055 C-10.14845276 6.40657761 -9.84280396 5.51359467 -9.52789307 4.59355164 C-7.22008871 0.47409826 -4.59070104 -0.97110984 0 0 Z " fill="#7AD8F7" transform="translate(163.25,441.6875)"/>
<path d="M0 0 C3.375 0.9375 3.375 0.9375 5.375 3.9375 C5.05157427 10.15966692 2.89996622 15.83905611 0.8828125 21.69140625 C0.36290237 23.22002541 0.36290237 23.22002541 -0.16751099 24.77952576 C-0.89922095 26.9262196 -1.63397273 29.07187876 -2.37158203 31.21655273 C-3.49656857 34.49001528 -4.61031979 37.76714207 -5.72265625 41.04492188 C-6.43683487 43.13564399 -7.15165706 45.2261464 -7.8671875 47.31640625 C-8.19854706 48.29154678 -8.52990662 49.26668732 -8.87130737 50.27137756 C-13.04279154 62.35529154 -13.04279154 62.35529154 -16.625 65.9375 C-19.69608055 66.2642107 -21.77550101 66.41888276 -24.5 64.875 C-26.65523442 61.16320739 -25.98365143 57.32251982 -24.94934082 53.32827759 C-23.96396635 50.20405042 -22.91062383 47.11145964 -21.828125 44.01953125 C-21.43808289 42.88472824 -21.04804077 41.74992523 -20.6461792 40.58073425 C-19.82090238 38.18942072 -18.99015451 35.79998921 -18.15429688 33.41235352 C-16.8776899 29.75770061 -15.6253184 26.0953586 -14.375 22.43164062 C-13.56915399 20.10626935 -12.76190956 17.78138211 -11.953125 15.45703125 C-11.58004211 14.36219925 -11.20695923 13.26736725 -10.8225708 12.13935852 C-10.46249939 11.12117538 -10.10242798 10.10299225 -9.73144531 9.05395508 C-9.42055969 8.16017654 -9.10967407 7.26639801 -8.78936768 6.34553528 C-6.65086682 1.92288974 -5.01707933 -0.08650137 0 0 Z " fill="#7AD8F7" transform="translate(427.625,338.0625)"/>
<path d="M0 0 C3.375 0.9375 3.375 0.9375 5.375 3.9375 C5.06032249 10.37596046 2.75940139 16.32186654 0.69921875 22.3828125 C0.33278763 23.47085175 -0.03364349 24.55889099 -0.41117859 25.67990112 C-1.1855657 27.97208696 -1.96320607 30.26317598 -2.74389648 32.55322266 C-3.93449042 36.05365163 -5.10736167 39.55969304 -6.27929688 43.06640625 C-7.03538528 45.29723897 -7.79251181 47.52772017 -8.55078125 49.7578125 C-8.8988533 50.80373566 -9.24692535 51.84965881 -9.60554504 52.92727661 C-12.85877166 62.37399188 -12.85877166 62.37399188 -16.625 65.9375 C-19.6875 66.4375 -19.6875 66.4375 -22.625 65.9375 C-24.31376648 64.65361023 -24.31376648 64.65361023 -25.625 62.9375 C-25.47196271 55.61924775 -23.30377387 49.14091924 -20.94921875 42.26171875 C-20.58278763 41.17413773 -20.21635651 40.0865567 -19.83882141 38.96601868 C-19.06587316 36.68109848 -18.28821789 34.39776573 -17.50610352 32.1159668 C-16.31196009 28.62342091 -15.14056158 25.12379126 -13.97070312 21.62304688 C-13.21490184 19.39797502 -12.45778568 17.17334927 -11.69921875 14.94921875 C-11.17711067 13.38200325 -11.17711067 13.38200325 -10.64445496 11.78312683 C-10.30763199 10.81144058 -9.97080902 9.83975433 -9.6237793 8.83862305 C-9.18862251 7.56029854 -9.18862251 7.56029854 -8.74467468 6.25614929 C-6.62686653 1.87054118 -4.96157222 -0.08554435 0 0 Z " fill="#7AD8F7" transform="translate(312.625,338.0625)"/>
<path d="M0 0 C3.375 0.9375 3.375 0.9375 5.375 3.9375 C5.06032249 10.37596046 2.75940139 16.32186654 0.69921875 22.3828125 C0.33278763 23.47085175 -0.03364349 24.55889099 -0.41117859 25.67990112 C-1.1855657 27.97208696 -1.96320607 30.26317598 -2.74389648 32.55322266 C-3.93449042 36.05365163 -5.10736167 39.55969304 -6.27929688 43.06640625 C-7.03538528 45.29723897 -7.79251181 47.52772017 -8.55078125 49.7578125 C-8.8988533 50.80373566 -9.24692535 51.84965881 -9.60554504 52.92727661 C-12.85877166 62.37399188 -12.85877166 62.37399188 -16.625 65.9375 C-19.6875 66.4375 -19.6875 66.4375 -22.625 65.9375 C-24.31376648 64.65361023 -24.31376648 64.65361023 -25.625 62.9375 C-25.47196271 55.61924775 -23.30377387 49.14091924 -20.94921875 42.26171875 C-20.58278763 41.17413773 -20.21635651 40.0865567 -19.83882141 38.96601868 C-19.06587316 36.68109848 -18.28821789 34.39776573 -17.50610352 32.1159668 C-16.31196009 28.62342091 -15.14056158 25.12379126 -13.97070312 21.62304688 C-13.21490184 19.39797502 -12.45778568 17.17334927 -11.69921875 14.94921875 C-11.17711067 13.38200325 -11.17711067 13.38200325 -10.64445496 11.78312683 C-10.30763199 10.81144058 -9.97080902 9.83975433 -9.6237793 8.83862305 C-9.18862251 7.56029854 -9.18862251 7.56029854 -8.74467468 6.25614929 C-6.62686653 1.87054118 -4.96157222 -0.08554435 0 0 Z " fill="#7AD8F7" transform="translate(197.625,338.0625)"/>
<path d="M0 0 C2.27010984 3.40516476 2.10646932 4.78659407 1.49209595 8.71389771 C0.59424394 12.88499795 -0.80788506 16.85705995 -2.23828125 20.87109375 C-2.56032028 21.79285904 -2.88235931 22.71462433 -3.2141571 23.6643219 C-3.8937899 25.60444821 -4.57727437 27.54322913 -5.2644043 29.48071289 C-6.30707415 32.42219311 -7.33713341 35.3678533 -8.36523438 38.31445312 C-9.03050979 40.20859348 -9.69650208 42.10248223 -10.36328125 43.99609375 C-10.66760574 44.86511826 -10.97193024 45.73414276 -11.28547668 46.62950134 C-16.61595203 61.61595203 -16.61595203 61.61595203 -20 65 C-25.25278759 65.55880719 -25.25278759 65.55880719 -27.69729614 63.73066711 C-29.34209686 61.54551774 -29.27255375 60.67493073 -28.90576172 57.99682617 C-28.07776365 52.47221973 -26.34063771 47.31193339 -24.5078125 42.05078125 C-24.16120575 41.03453171 -23.814599 40.01828217 -23.45748901 38.97123718 C-22.72717767 36.83601147 -21.99241236 34.70230446 -21.25341797 32.57006836 C-20.12592805 29.31517914 -19.01303298 26.05557761 -17.90234375 22.79492188 C-17.18835022 20.71324986 -16.47353446 18.63185963 -15.7578125 16.55078125 C-15.26077316 15.09748161 -15.26077316 15.09748161 -14.75369263 13.61482239 C-9.32569687 -1.99836362 -9.32569687 -1.99836362 0 0 Z " fill="#7AD8F7" transform="translate(86,339)"/>
<path d="M0 0 C2.75 1.3125 2.75 1.3125 3.75 3.3125 C3.36599841 10.61445907 1.46098883 16.90390224 -0.9609375 23.76953125 C-1.3297403 24.83491623 -1.69854309 25.90030121 -2.07852173 26.99797058 C-2.85571222 29.23583801 -3.63756158 31.47209236 -4.42382812 33.70678711 C-5.62595777 37.12772555 -6.81006914 40.55452389 -7.9921875 43.98242188 C-8.75154286 46.16182841 -9.51192403 48.34087785 -10.2734375 50.51953125 C-10.80328751 52.05393608 -10.80328751 52.05393608 -11.34384155 53.61933899 C-11.68074005 54.57100449 -12.01763855 55.52266998 -12.36474609 56.50317383 C-12.8032338 57.754851 -12.8032338 57.754851 -13.25057983 59.03181458 C-14.76053312 62.47754098 -16.14479588 64.81806658 -19.625 66.375 C-22.25 66.3125 -22.25 66.3125 -25.125 64.3125 C-27.25 61.3125 -27.25 61.3125 -27.12402344 58.37207031 C-26.12648004 52.88145657 -24.18961492 47.62729713 -22.390625 42.359375 C-21.81124176 40.65361298 -21.81124176 40.65361298 -21.22015381 38.91339111 C-20.40322194 36.51853003 -19.58269101 34.124894 -18.75878906 31.73242188 C-17.5014936 28.0668545 -16.270103 24.39320447 -15.0390625 20.71875 C-14.24116649 18.39008195 -13.44173945 16.0619378 -12.640625 13.734375 C-12.27584045 12.63438171 -11.91105591 11.53438843 -11.53521729 10.40106201 C-11.1784491 9.38280334 -10.82168091 8.36454468 -10.45410156 7.31542969 C-10.14845276 6.41943054 -9.84280396 5.5234314 -9.52789307 4.60028076 C-7.2235779 0.47492156 -4.59436078 -0.97188401 0 0 Z " fill="#7AD8F7" transform="translate(48.25,441.6875)"/>
<path d="M0 0 C2 2 2 2 2.36450195 5.37182617 C2.20439518 11.25052728 0.11051614 16.55782847 -1.83203125 22.05078125 C-2.22444504 23.18654099 -2.61685883 24.32230072 -3.02116394 25.49247742 C-3.85003537 27.88223026 -4.68498271 30.26988336 -5.52563477 32.65551758 C-6.81249236 36.3124783 -8.07651545 39.97676022 -9.33789062 43.64257812 C-10.14709534 45.96661359 -10.95759752 48.29019779 -11.76953125 50.61328125 C-12.14777542 51.71013748 -12.52601959 52.80699371 -12.91572571 53.93708801 C-13.45594612 55.45963448 -13.45594612 55.45963448 -14.00708008 57.01293945 C-14.32018631 57.90592239 -14.63329254 58.79890533 -14.95588684 59.71894836 C-16.03298628 62.07206442 -17.00354809 63.37570068 -19 65 C-21.4375 65.875 -21.4375 65.875 -24 66 C-26.25 64.875 -26.25 64.875 -28 63 C-29.10935824 59.26739843 -28.97109067 56.92937226 -27.70825195 53.27661133 C-27.40075516 52.36829056 -27.09325836 51.45996979 -26.77644348 50.52412415 C-26.43384995 49.55323349 -26.09125641 48.58234283 -25.73828125 47.58203125 C-25.39121628 46.56960861 -25.04415131 45.55718597 -24.68656921 44.51408386 C-23.57314849 41.27620699 -22.44278203 38.04452427 -21.3125 34.8125 C-20.56990994 32.65596147 -19.82836191 30.49906383 -19.08789062 28.34179688 C-13.6902202 12.69245315 -13.6902202 12.69245315 -10.87963867 5.36987305 C-10.41070442 4.14508492 -10.41070442 4.14508492 -9.93229675 2.89555359 C-7.93015489 -1.17521807 -4.0197388 -0.21534315 0 0 Z " fill="#7AD8F7" transform="translate(353,396)"/>
<path d="M0 0 C2.9375 1.125 2.9375 1.125 3.9375 2.125 C4.61116828 9.4537107 2.51331644 15.32361652 0.0703125 22.17578125 C-0.32447296 23.31154099 -0.71925842 24.44730072 -1.12600708 25.61747742 C-1.95923051 28.00718638 -2.79837046 30.39483969 -3.64306641 32.78051758 C-4.93783372 36.43844282 -6.21456704 40.1022753 -7.48828125 43.76757812 C-8.3010425 46.09151011 -9.11480978 48.41509055 -9.9296875 50.73828125 C-10.31309296 51.83513748 -10.69649841 52.93199371 -11.09152222 54.06208801 C-11.45174469 55.07711899 -11.81196716 56.09214996 -12.18310547 57.13793945 C-12.49843231 58.03092239 -12.81375916 58.92390533 -13.13864136 59.84394836 C-14.0625 62.125 -14.0625 62.125 -16.0625 65.125 C-19.3333979 66.12049067 -21.22983041 66.45368536 -24.4375 65.1875 C-26.45634421 62.62512081 -26.42665598 60.77403863 -26.35464478 57.57827759 C-25.75447941 52.53840574 -23.9150843 47.83781614 -22.23046875 43.07421875 C-21.83805496 41.93845901 -21.44564117 40.80269928 -21.04133606 39.63252258 C-20.21246463 37.24276974 -19.37751729 34.85511664 -18.53686523 32.46948242 C-17.25000764 28.8125217 -15.98598455 25.14823978 -14.72460938 21.48242188 C-13.91540466 19.15838641 -13.10490248 16.83480221 -12.29296875 14.51171875 C-11.91472458 13.41486252 -11.53648041 12.31800629 -11.14677429 11.18791199 C-10.78662735 10.17288101 -10.42648041 9.15785004 -10.05541992 8.11206055 C-9.74231369 7.21907761 -9.42920746 6.32609467 -9.10661316 5.40605164 C-7.1278614 1.08311508 -4.796654 -1.37047257 0 0 Z " fill="#7AD8F7" transform="translate(236.0625,395.875)"/>
<path d="M0 0 C2.9375 1.125 2.9375 1.125 3.9375 2.125 C4.4395402 8.78697876 3.0114974 13.93507996 0.796875 20.1796875 C0.47342102 21.12127716 0.14996704 22.06286682 -0.18328857 23.0329895 C-1.21494227 26.02608679 -2.26369971 29.01287392 -3.3125 32 C-4.00237222 33.9983288 -4.69118436 35.9970239 -5.37890625 37.99609375 C-7.24215763 43.38420285 -9.11250309 48.76759534 -11.0625 54.125 C-11.38520874 55.04750549 -11.70791748 55.97001099 -12.04040527 56.92047119 C-12.37092896 57.81957214 -12.70145264 58.7186731 -13.04199219 59.64501953 C-13.333703 60.45681671 -13.62541382 61.26861389 -13.92596436 62.10501099 C-15.31663036 64.5766713 -16.40883599 65.2077385 -19.0625 66.125 C-22.41227063 65.80597423 -23.65429639 65.53320361 -26.0625 63.125 C-26.84959285 55.84399571 -24.63863321 49.88379968 -22.23046875 43.07421875 C-21.83805496 41.93845901 -21.44564117 40.80269928 -21.04133606 39.63252258 C-20.21246463 37.24276974 -19.37751729 34.85511664 -18.53686523 32.46948242 C-17.25000764 28.8125217 -15.98598455 25.14823978 -14.72460938 21.48242188 C-13.91540466 19.15838641 -13.10490248 16.83480221 -12.29296875 14.51171875 C-11.91472458 13.41486252 -11.53648041 12.31800629 -11.14677429 11.18791199 C-10.78662735 10.17288101 -10.42648041 9.15785004 -10.05541992 8.11206055 C-9.74231369 7.21907761 -9.42920746 6.32609467 -9.10661316 5.40605164 C-7.1278614 1.08311508 -4.796654 -1.37047257 0 0 Z " fill="#7AD8F7" transform="translate(121.0625,395.875)"/>
</svg>
