<?xml version="1.0" encoding="UTF-8"?>
<svg version="1.1" xmlns="http://www.w3.org/2000/svg" width="512" height="512">
<path d="M0 0 C4.7270111 3.84986204 8.36505043 7.39792063 11.5715332 12.60571289 C14.87802677 17.9254691 14.87802677 17.9254691 20.27539062 20.84765625 C24.55994343 21.38095645 28.79661131 21.30829033 33.10595703 21.22314453 C41.31054479 21.07652262 48.82077497 23.5961785 56.12158203 27.24658203 C58.43158203 23.61658203 60.74158203 19.98658203 63.12158203 16.24658203 C61.92533203 16.34970703 60.72908203 16.45283203 59.49658203 16.55908203 C56.08008716 16.57728715 54.319198 16.0578948 51.68408203 13.87158203 C48.16780622 10.26954339 48.16780622 10.26954339 48.03173828 7.25830078 C48.08201172 6.49130859 48.13228516 5.72431641 48.18408203 4.93408203 C48.23242188 3.79519531 48.23242188 3.79519531 48.28173828 2.63330078 C50.73258911 -4.3316753 60.42755337 -8.02592679 66.40795898 -11.42944336 C68.18702753 -12.44259538 69.96025122 -13.46542888 71.73291016 -14.48974609 C85.87567058 -22.59783179 85.87567058 -22.59783179 93.12158203 -20.75341797 C96.55501191 -18.40422911 97.0462299 -17.13017862 97.87158203 -13.00341797 C97.95408203 -11.93091797 98.03658203 -10.85841797 98.12158203 -9.75341797 C99.42482422 -10.16914062 99.42482422 -10.16914062 100.75439453 -10.59326172 C101.90681641 -10.95548828 103.05923828 -11.31771484 104.24658203 -11.69091797 C105.38353516 -12.05056641 106.52048828 -12.41021484 107.69189453 -12.78076172 C126.42150422 -18.09246196 145.91385332 -13.97983496 163.12158203 -5.75341797 C166.70430686 -3.68130111 169.91638839 -1.36704903 173.12158203 1.24658203 C173.95173828 1.91431641 174.78189453 2.58205078 175.63720703 3.27001953 C190.1132571 15.57022158 199.6286231 32.32687474 202.12158203 51.24658203 C203.07146141 63.15407685 202.75051744 74.79815486 199.12158203 86.24658203 C200.10384766 86.37613281 200.10384766 86.37613281 201.10595703 86.50830078 C217.25780656 88.99495558 230.38456566 96.90241928 241.02001953 109.31689453 C243.51823982 112.79954364 245.55343215 116.36936726 247.49658203 120.18408203 C247.81852539 120.81580322 248.14046875 121.44752441 248.47216797 122.09838867 C252.84909085 131.230873 254.68978997 140.33930678 254.62158203 150.43408203 C254.61586182 151.43149414 254.6101416 152.42890625 254.60424805 153.45654297 C254.16180831 171.98240328 246.22565738 186.30231248 233.12158203 199.24658203 C215.36962792 215.30958504 193.19251336 215.86131373 170.62158203 215.99658203 C168.23744633 216.02479857 165.85333032 216.05473373 163.46923828 216.08642578 C157.68676357 216.15960737 151.9044078 216.2116434 146.12158203 216.24658203 C146.74149521 216.65537094 147.36140839 217.06415985 148.00010681 217.4853363 C148.81226151 218.02328323 149.6244162 218.56123016 150.46118164 219.11547852 C151.26671982 219.64801743 152.072258 220.18055634 152.90220642 220.72923279 C166.28098185 229.87607331 174.09344149 245.08409397 177.37158203 260.62158203 C180.3751982 279.69860362 175.61371071 296.62482588 164.98486328 312.42236328 C154.35825845 326.21596345 138.37267111 335.00584642 121.12158203 337.24658203 C112.91960004 337.81678158 104.67630771 337.6573392 96.4597168 337.63476562 C93.96822887 337.63883579 91.47674274 337.64418017 88.98526001 337.6506958 C82.94570174 337.66291098 76.90629889 337.66118429 70.86674685 337.65245788 C65.95345707 337.64565551 61.04019859 337.64477559 56.12690544 337.64802933 C55.074035 337.64871888 55.074035 337.64871888 53.99989445 337.64942235 C52.57351962 337.65038163 51.1471448 337.65135427 49.72076999 337.65234013 C36.37536735 337.66087528 23.03002673 337.65108976 9.68463426 337.63493903 C-1.73981589 337.62154049 -13.16417455 337.62386375 -24.58862305 337.63769531 C-37.88792727 337.65378946 -51.18717723 337.6600484 -64.48648983 337.65085852 C-65.90763508 337.64990298 -67.32878034 337.64895986 -68.74992561 337.64802933 C-69.44896892 337.6475665 -70.14801223 337.64710367 -70.86823867 337.64662682 C-75.76903423 337.64404819 -80.66979507 337.64838354 -85.57058525 337.65546799 C-92.18055969 337.66481405 -98.79038918 337.65805631 -105.40035629 337.64078522 C-107.81815748 337.63683757 -110.23597327 337.63792468 -112.65376854 337.64457321 C-134.58144689 337.69928516 -155.22896689 335.63858408 -172.87841797 321.24658203 C-174.12365234 320.24498047 -174.12365234 320.24498047 -175.39404297 319.22314453 C-191.00064756 305.96231793 -200.58289868 287.85366984 -202.53466797 267.47460938 C-204.03992071 247.8169493 -199.12851976 228.18805133 -186.78076172 212.59814453 C-173.28928646 197.13172668 -157.51631572 186.16322226 -136.87841797 183.24658203 C-134.86139327 183.16964056 -132.84219532 183.13852132 -130.82373047 183.14892578 C-129.71513672 183.15214844 -128.60654297 183.15537109 -127.46435547 183.15869141 C-126.32224609 183.16707031 -125.18013672 183.17544922 -124.00341797 183.18408203 C-122.25544922 183.19084961 -122.25544922 183.19084961 -120.47216797 183.19775391 C-117.60753152 183.20949422 -114.74300164 183.22591633 -111.87841797 183.24658203 C-112.39791016 182.40998047 -112.91740234 181.57337891 -113.45263672 180.71142578 C-117.2569093 174.41094258 -120.20344215 168.68807994 -122.12841797 161.55908203 C-124.36261438 154.25265593 -128.15484047 150.6054056 -133.81201172 145.91845703 C-150.54304066 131.90239183 -159.91178406 107.57454469 -161.87841797 86.24658203 C-163.72581969 58.77197968 -156.1790926 33.82524167 -138.87841797 12.24658203 C-138.37568359 11.58916016 -137.87294922 10.93173828 -137.35498047 10.25439453 C-104.0250738 -31.55248262 -39.49775796 -31.35532118 0 0 Z " fill="#80CDF5" transform="translate(247.87841796875,136.75341796875)"/>
<path d="M0 0 C4.7270111 3.84986204 8.36505043 7.39792063 11.5715332 12.60571289 C14.87802677 17.9254691 14.87802677 17.9254691 20.27539062 20.84765625 C24.55994343 21.38095645 28.79661131 21.30829033 33.10595703 21.22314453 C41.31054479 21.07652262 48.82077497 23.5961785 56.12158203 27.24658203 C58.43158203 23.61658203 60.74158203 19.98658203 63.12158203 16.24658203 C61.92533203 16.34970703 60.72908203 16.45283203 59.49658203 16.55908203 C56.08008716 16.57728715 54.319198 16.0578948 51.68408203 13.87158203 C48.16780622 10.26954339 48.16780622 10.26954339 48.03173828 7.25830078 C48.08201172 6.49130859 48.13228516 5.72431641 48.18408203 4.93408203 C48.23242188 3.79519531 48.23242188 3.79519531 48.28173828 2.63330078 C50.73258911 -4.3316753 60.42755337 -8.02592679 66.40795898 -11.42944336 C68.18702753 -12.44259538 69.96025122 -13.46542888 71.73291016 -14.48974609 C85.87567058 -22.59783179 85.87567058 -22.59783179 93.12158203 -20.75341797 C96.55501191 -18.40422911 97.0462299 -17.13017862 97.87158203 -13.00341797 C97.95408203 -11.93091797 98.03658203 -10.85841797 98.12158203 -9.75341797 C99.42482422 -10.16914062 99.42482422 -10.16914062 100.75439453 -10.59326172 C101.90681641 -10.95548828 103.05923828 -11.31771484 104.24658203 -11.69091797 C105.38353516 -12.05056641 106.52048828 -12.41021484 107.69189453 -12.78076172 C126.42150422 -18.09246196 145.91385332 -13.97983496 163.12158203 -5.75341797 C166.70430686 -3.68130111 169.91638839 -1.36704903 173.12158203 1.24658203 C173.95173828 1.91431641 174.78189453 2.58205078 175.63720703 3.27001953 C190.1132571 15.57022158 199.6286231 32.32687474 202.12158203 51.24658203 C203.07146141 63.15407685 202.75051744 74.79815486 199.12158203 86.24658203 C200.10384766 86.37613281 200.10384766 86.37613281 201.10595703 86.50830078 C217.25780656 88.99495558 230.38456566 96.90241928 241.02001953 109.31689453 C243.51823982 112.79954364 245.55343215 116.36936726 247.49658203 120.18408203 C247.81852539 120.81580322 248.14046875 121.44752441 248.47216797 122.09838867 C252.84909085 131.230873 254.68978997 140.33930678 254.62158203 150.43408203 C254.61586182 151.43149414 254.6101416 152.42890625 254.60424805 153.45654297 C254.16180831 171.98240328 246.22565738 186.30231248 233.12158203 199.24658203 C216.10422164 214.64488182 194.94563824 215.93757321 173.18505859 215.82299805 C169.49632335 215.80908106 165.81010653 215.84337467 162.12158203 215.88134766 C140.73876066 215.94827383 140.73876066 215.94827383 130.90527344 211.41821289 C127.65290615 210.04932054 124.61645983 209.62702677 121.12158203 209.24658203 C121.25435547 208.70130859 121.38712891 208.15603516 121.52392578 207.59423828 C126.70570076 185.46768089 124.77312648 163.29219022 112.87158203 143.62158203 C101.83140272 127.04939063 85.75780524 114.73288962 66.12158203 110.24658203 C43.89534752 106.83646335 23.1130083 109.6450069 4.29443359 122.49414062 C-5.70912794 129.8621164 -13.51710394 138.97450254 -18.87841797 150.24658203 C-22.88427945 149.71041288 -26.48130926 148.74600359 -30.28125 147.37915039 C-45.27005952 142.09651351 -59.1647107 143.16909891 -73.84326172 149.53173828 C-82.71133631 153.99686981 -89.83559254 160.41430944 -95.87841797 168.24658203 C-101.12667302 167.70309967 -104.90671418 165.93994591 -109.44091797 163.43408203 C-110.08738281 163.09054687 -110.73384766 162.74701172 -111.39990234 162.39306641 C-115.22309986 160.32006104 -118.50652242 158.01254627 -121.87841797 155.24658203 C-122.70857422 154.75029297 -123.53873047 154.25400391 -124.39404297 153.74267578 C-142.42174656 142.88637 -154.12129712 121.05822613 -159.42626953 101.1953125 C-165.70813638 75.02503023 -161.53079494 47.46177259 -147.87841797 24.24658203 C-145.04122831 20.10816331 -142.01626249 16.16032992 -138.87841797 12.24658203 C-138.37568359 11.58916016 -137.87294922 10.93173828 -137.35498047 10.25439453 C-104.0250738 -31.55248262 -39.49775796 -31.35532118 0 0 Z " fill="#A5DCF7" transform="translate(247.87841796875,136.75341796875)"/>
<path d="M0 0 C12.54558089 10.24671969 20.63220048 22.61043716 27.16943359 37.30102539 C27.69150391 38.46504883 28.21357422 39.62907227 28.75146484 40.82836914 C37.01514367 61.06641453 37.75442835 87.99968567 29.94287109 108.52368164 C27.69483802 112.04427969 26.04809765 112.56089749 22.10693359 113.80102539 C3.833447 120.19573388 -10.1667642 133.05672677 -18.83056641 150.30102539 C-22.83642789 149.76485624 -26.43345769 148.80044695 -30.23339844 147.43359375 C-45.22220796 142.15095687 -59.11685914 143.22354227 -73.79541016 149.58618164 C-82.66348475 154.05131317 -89.78774098 160.4687528 -95.83056641 168.30102539 C-101.07882146 167.75754303 -104.85886262 165.99438927 -109.39306641 163.48852539 C-110.03953125 163.14499023 -110.68599609 162.80145508 -111.35205078 162.44750977 C-115.1752483 160.3745044 -118.45867085 158.06698963 -121.83056641 155.30102539 C-122.66072266 154.80473633 -123.49087891 154.30844727 -124.34619141 153.79711914 C-142.373895 142.94081336 -154.07344556 121.11266949 -159.37841797 101.24975586 C-165.66028482 75.07947359 -161.48294337 47.51621595 -147.83056641 24.30102539 C-144.99337675 20.16260667 -141.96841093 16.21477328 -138.83056641 12.30102539 C-138.32783203 11.64360352 -137.82509766 10.98618164 -137.30712891 10.30883789 C-103.93502769 -31.55096538 -39.5825979 -31.20239312 0 0 Z " fill="#F8AE00" transform="translate(247.83056640625,136.698974609375)"/>
<path d="M0 0 C2.96476307 1.8055074 5.42247762 3.84495524 7 7 C7.38450302 12.09466497 7.03260711 14.88693359 4 19 C1.3996582 20.88110352 1.3996582 20.88110352 -1.69921875 22.62890625 C-2.82650391 23.27150391 -3.95378906 23.91410156 -5.11523438 24.57617188 C-6.30592708 25.23839364 -7.49668272 25.90050227 -8.6875 26.5625 C-9.85934341 27.22742511 -11.03057378 27.89343183 -12.20117188 28.56054688 C-30.42242473 38.86762282 -30.42242473 38.86762282 -36 38 C-38.77428577 36.73896101 -40.48317435 35.68910086 -42.3125 33.25 C-43.57951419 29.10340811 -43.68073067 25.46322743 -41.83886719 21.50415039 C-39.62529893 18.48973594 -37.52213934 17.196445 -34.265625 15.37109375 C-33.13382813 14.72849609 -32.00203125 14.08589844 -30.8359375 13.42382812 C-29.64079883 12.76140504 -28.44548497 12.09929791 -27.25 11.4375 C-26.06966618 10.77263047 -24.88997182 10.10662438 -23.7109375 9.43945312 C-21.46195854 8.1708964 -19.20941366 6.90863506 -16.95288086 5.65356445 C-14.5785577 4.32398275 -12.23360548 2.96011631 -9.89453125 1.5703125 C-6.22668099 -0.41953339 -4.11438256 -0.6732626 0 0 Z " fill="#FDD83A" transform="translate(66,273)"/>
<path d="M0 0 C1.57491211 0.87748901 1.57491211 0.87748901 3.18164062 1.77270508 C3.75442749 2.09000076 4.32721436 2.40729645 4.9173584 2.73420715 C6.12024591 3.40391111 7.32013773 4.07902195 8.51708984 4.75927734 C10.32594127 5.78545733 12.14517316 6.7908944 13.96679688 7.79418945 C29.16660861 16.2621723 29.16660861 16.2621723 31.83789062 21.60473633 C32.21303612 26.57541415 31.99667861 29.65625134 28.83789062 33.60473633 C25.37392977 36.20270697 22.04630802 35.98241481 17.83789062 35.60473633 C14.45531436 34.23463032 11.35982709 32.44433122 8.21289062 30.60473633 C7.33640869 30.10578857 6.45992676 29.60684082 5.55688477 29.09277344 C2.97359408 27.61372869 0.40445038 26.11258379 -2.16210938 24.60473633 C-2.86964355 24.19497559 -3.57717773 23.78521484 -4.30615234 23.36303711 C-15.72554034 16.73492056 -15.72554034 16.73492056 -18.16210938 12.60473633 C-19.00142201 6.10006343 -19.00142201 6.10006343 -17.14257812 2.78833008 C-12.1397586 -3.48408715 -7.00517195 -3.09099427 0 0 Z " fill="#FDD83A" transform="translate(41.162109375,117.395263671875)"/>
<path d="M0 0 C1.40332031 1.69897461 1.40332031 1.69897461 2.765625 3.83984375 C3.53990845 5.05269043 3.53990845 5.05269043 4.32983398 6.29003906 C7.37323688 11.22817269 10.37181538 16.18740849 13.3125 21.1875 C13.94478516 22.24130859 14.57707031 23.29511719 15.22851562 24.38085938 C15.82986328 25.40373047 16.43121094 26.42660156 17.05078125 27.48046875 C17.59387939 28.39723389 18.13697754 29.31399902 18.6965332 30.25854492 C20.89414894 34.88057659 21.37540495 37.87378514 19.75 42.75 C18 46 18 46 15 48 C12.6953125 48.37109375 12.6953125 48.37109375 10.125 48.4375 C8.86042969 48.49744141 8.86042969 48.49744141 7.5703125 48.55859375 C3.04425453 47.57496717 0.6327478 43.97556463 -1.80517578 40.21679688 C-2.3464209 39.22744141 -2.88766602 38.23808594 -3.4453125 37.21875 C-4.04730469 36.12949219 -4.64929688 35.04023437 -5.26953125 33.91796875 C-5.88183594 32.79003906 -6.49414062 31.66210938 -7.125 30.5 C-8.35627947 28.26014649 -9.58803305 26.02055352 -10.8203125 23.78125 C-11.35930176 22.79189453 -11.89829102 21.80253906 -12.45361328 20.78320312 C-13.47074149 18.95256506 -14.5415846 17.15059235 -15.66748047 15.38476562 C-17.58297129 11.95667579 -17.78918376 8.77628118 -17 5 C-15.26458399 1.68628384 -13.12891951 -0.52466547 -9.625 -2 C-5.82646999 -2 -3.50041405 -1.59668009 0 0 Z " fill="#FDD83A" transform="translate(104,53)"/>
<path d="M0 0 C2.87029869 1.79393668 4.49131638 2.98263276 6 6 C7.17733697 14.19349959 3.39637782 19.60514134 -0.6875 26.5 C-1.31333984 27.58925781 -1.93917969 28.67851563 -2.58398438 29.80078125 C-4.36372367 32.88317789 -6.17421174 35.94470543 -8 39 C-8.4842041 39.82242188 -8.9684082 40.64484375 -9.46728516 41.4921875 C-10.11189697 42.56339844 -10.11189697 42.56339844 -10.76953125 43.65625 C-11.13280518 44.26275391 -11.4960791 44.86925781 -11.87036133 45.49414062 C-13.64001151 47.85316425 -15.41790013 48.90627205 -18.3046875 49.37109375 C-22.69338482 49.48447955 -25.29184236 49.42489458 -29.125 47.125 C-31.80053339 42.66577768 -31.8465607 39.09496104 -31 34 C-29.20337259 29.71391402 -26.84267433 25.86740791 -24.375 21.9375 C-23.75753906 20.91333984 -23.14007813 19.88917969 -22.50390625 18.83398438 C-10.26406583 -1.32954221 -10.26406583 -1.32954221 0 0 Z " fill="#FDD83A" transform="translate(276,52)"/>
<path d="M0 0 C2.97672584 1.77280561 5.42804007 3.85608015 7 7 C7.13592861 10.00374104 7.21278899 12.98309704 7.23828125 15.98828125 C7.246353 16.88363083 7.25442474 17.77898041 7.26274109 18.70146179 C7.2765843 20.59872499 7.28730539 22.49601313 7.29516602 24.39331055 C7.31237046 27.29068394 7.35625277 30.18691379 7.40039062 33.08398438 C7.41051832 34.92707494 7.41903418 36.77017521 7.42578125 38.61328125 C7.44328934 39.47802567 7.46079742 40.34277008 7.47883606 41.23371887 C7.46410578 45.33231004 7.34344608 47.45128094 5.12182617 51.00073242 C2.73967207 53.24529115 1.18502496 54.24166072 -2 55 C-6.86839691 54.79715013 -9.52143455 53.37917786 -13 50 C-15.06931758 43.79204726 -14.30800053 36.53108717 -14.35009766 30.01342773 C-14.366653 28.13472096 -14.39393761 26.25607706 -14.43212891 24.37768555 C-14.48702793 21.66161607 -14.50878998 18.94701907 -14.5234375 16.23046875 C-14.54610687 15.39589645 -14.56877625 14.56132416 -14.59213257 13.70146179 C-14.57695938 9.49192073 -14.28990815 6.82049977 -11.59228516 3.4855957 C-7.67920809 -0.2664327 -5.41361547 -0.54136155 0 0 Z " fill="#FDD83B" transform="translate(188,28)"/>
<path d="M0 0 C0.93549683 -0.00241196 1.87099365 -0.00482391 2.83483887 -0.00730896 C4.80839283 -0.00633153 6.78197455 0.00703735 8.75537109 0.03198242 C11.77145787 0.06629485 14.78461412 0.05263529 17.80078125 0.03320312 C19.7213666 0.04010184 21.64194441 0.04977445 23.5625 0.0625 C24.91112122 0.0550602 24.91112122 0.0550602 26.2869873 0.04747009 C30.42600345 0.12509763 32.72170314 0.28932878 36.32617188 2.47680664 C38.89610707 5.30572506 39.24314914 7.21741699 39.59375 11.00390625 C39.22464282 15.28554952 38.37263492 16.70462321 35.28125 19.62890625 C31.00288099 21.86681483 26.88942022 21.93550984 22.1640625 21.9296875 C21.00099075 21.93611519 21.00099075 21.93611519 19.81442261 21.94267273 C18.17886325 21.94839866 16.54327844 21.94892912 14.90771484 21.94458008 C12.42110149 21.94142509 9.93568481 21.96488237 7.44921875 21.99023438 C5.85416815 21.99250824 4.25911439 21.99321046 2.6640625 21.9921875 C1.56059982 22.00600212 1.56059982 22.00600212 0.43484497 22.02009583 C-4.64766302 21.97513235 -8.21862468 21.04477419 -12.71875 18.62890625 C-14.81937755 15.47796492 -15.06188286 14.40646965 -15.15625 10.75390625 C-15.19621094 9.91085938 -15.23617188 9.0678125 -15.27734375 8.19921875 C-13.50361378 0.03758017 -6.91298246 -0.10194163 0 0 Z " fill="#FDD83A" transform="translate(14.71875,202.37109375)"/>
<path d="M0 0 C2.3181362 1.89111111 3.66914015 3.33828031 5 6 C5.08984375 7.98828125 5.08984375 7.98828125 4.9375 10.3125 C4.90527344 11.07175781 4.87304688 11.83101562 4.83984375 12.61328125 C2.32473158 19.76087908 -7.93157607 23.62266823 -14.0625 27.125 C-16.19929706 28.35663498 -18.33601853 29.58840111 -20.47265625 30.8203125 C-21.41375244 31.35930176 -22.35484863 31.89829102 -23.32446289 32.45361328 C-25.11479477 33.48837577 -26.88407996 34.56039593 -28.63061523 35.66748047 C-32.00553513 37.56550343 -34.18627146 37.53526015 -38 37 C-40.96922861 35.20650621 -43.42452071 33.15095858 -45 30 C-45.08984375 28.01171875 -45.08984375 28.01171875 -44.9375 25.6875 C-44.88916016 24.54861328 -44.88916016 24.54861328 -44.83984375 23.38671875 C-42.38899292 16.42174267 -32.69402866 12.72749118 -26.71362305 9.32397461 C-24.9345545 8.31082259 -23.16133081 7.28798909 -21.38867188 6.26367188 C-7.24591145 -1.84441382 -7.24591145 -1.84441382 0 0 Z " fill="#FCD83B" transform="translate(341,116)"/>
<path d="M0 0 C2.59754313 1.27712239 5.13492905 2.6167509 7.64453125 4.05859375 C8.66063477 4.63770508 8.66063477 4.63770508 9.69726562 5.22851562 C11.09690744 6.02849557 12.4953664 6.83054892 13.89257812 7.63476562 C14.57384766 8.02212891 15.25511719 8.40949219 15.95703125 8.80859375 C16.56522705 9.15720459 17.17342285 9.50581543 17.80004883 9.86499023 C20.78798693 11.40654214 23.90968236 12.67557815 27 14 C24.36 19.94 21.72 25.88 19 32 C11.20382199 29.401274 9.66242416 26.03458626 6 19 C3.2179628 12.76365953 0.95298767 6.78243355 0 0 Z " fill="#A5DCF6" transform="translate(124,291)"/>
</svg>
