<svg version="1.1" id="Layer_1" xmlns="http://www.w3.org/2000/svg" xmlns:xlink="http://www.w3.org/1999/xlink" x="0px" y="0px"
	 width="100%" viewBox="0 0 512 512" enable-background="new 0 0 512 512" xml:space="preserve">
<path fill="#FDD83B" opacity="1.000000" stroke="none" 
	d="
M262.539368,1.000000 
	C269.050812,7.667404 266.790436,15.852424 266.939575,23.517525 
	C267.169067,35.314064 267.016724,47.118393 266.993195,58.919346 
	C266.980865,65.098244 263.010590,69.039185 256.926056,69.000130 
	C250.863022,68.961205 247.011749,65.019196 247.005341,58.768661 
	C246.989304,43.144814 247.174500,27.517769 246.890793,11.899057 
	C246.808746,7.383183 248.142731,4.123341 251.330170,1.282717 
	C254.692917,1.000000 258.385834,1.000000 262.539368,1.000000 
z"/>
<path fill="#FDD83B" opacity="1.000000" stroke="none" 
	d="
M1.000000,251.460632 
	C7.652961,244.943085 15.828822,247.211197 23.481529,247.060928 
	C35.271721,246.829407 47.069832,246.984772 58.864532,247.006165 
	C65.063538,247.017410 69.027733,250.977325 69.000069,257.050507 
	C68.972427,263.119080 65.017159,266.988678 58.761112,266.994934 
	C43.145561,267.010498 27.526682,266.821930 11.916481,267.111328 
	C7.388739,267.195282 4.140189,265.831604 1.280877,262.670013 
	C1.000000,259.307098 1.000000,255.614182 1.000000,251.460632 
z"/>
<path fill="#FDD83B" opacity="1.000000" stroke="none" 
	d="
M513.000000,262.539368 
	C506.168121,269.154449 497.805908,266.756226 489.988617,266.932159 
	C478.363739,267.193787 466.728577,267.016327 455.097839,266.993378 
	C448.912048,266.981201 444.928558,262.985535 445.000031,256.949493 
	C445.072510,250.829239 448.970428,247.011795 455.231476,247.005356 
	C470.849945,246.989258 486.471710,247.178802 502.084778,246.888229 
	C506.613678,246.803955 509.860046,248.168701 512.718994,251.329987 
	C513.000000,254.692917 513.000000,258.385834 513.000000,262.539368 
z"/>
<path fill="#FDD83B" opacity="1.000000" stroke="none" 
	d="
M251.460632,513.000000 
	C244.934677,506.309418 247.214157,498.099121 247.061707,490.412903 
	C246.827118,478.585480 246.979111,466.749908 247.008789,454.917938 
	C247.023636,448.999603 250.921890,445.105896 256.822845,445.000061 
	C262.901917,444.891022 266.983765,448.886139 266.992584,455.054871 
	C267.014984,470.719818 266.821991,486.388153 267.111450,502.047760 
	C267.195312,506.583984 265.852020,509.853943 262.670013,512.718994 
	C259.307098,513.000000 255.614182,513.000000 251.460632,513.000000 
z"/>
<path fill="#F9AE00" opacity="1.000000" stroke="none" 
	d="
M248.453094,107.264107 
	C276.603088,106.573524 303.025940,111.636276 327.682465,124.908104 
	C352.237518,138.125305 371.414795,156.849670 385.876282,180.545166 
	C395.627686,196.523071 401.871613,213.924057 404.803223,232.288330 
	C407.183411,247.198380 407.664337,262.187531 405.279205,277.418884 
	C402.555267,294.813812 397.717102,311.287292 389.595215,326.793976 
	C378.604309,347.778259 363.221405,365.051697 344.102356,378.958374 
	C325.416321,392.550140 304.481628,401.369415 281.769562,404.798218 
	C239.914688,411.116943 201.407623,402.373474 167.180389,376.715118 
	C138.617523,355.303040 119.837379,327.198547 111.599991,292.663269 
	C108.398811,279.242310 106.930984,265.006134 107.317444,251.215408 
	C108.106316,223.064682 116.479889,196.641098 132.453583,173.363693 
	C154.194016,141.682770 184.022263,120.777023 221.429153,111.383835 
	C230.078003,109.212036 239.150818,108.728615 248.453094,107.264107 
z"/>
<path fill="#FDD83B" opacity="1.000000" stroke="none" 
	d="
M379.714294,65.714005 
	C374.753784,74.107864 370.142456,82.275108 365.250488,90.270660 
	C362.187256,95.277313 355.642639,96.753036 350.781921,93.931610 
	C346.105743,91.217293 344.274445,84.935829 347.152344,79.719765 
	C352.541351,69.952553 358.210663,60.339073 363.824707,50.697357 
	C366.350250,46.359905 368.952972,42.063545 371.649231,37.830395 
	C374.345703,33.596874 379.289185,32.317036 384.671082,34.272831 
	C388.660217,35.722477 391.553192,40.036980 389.905243,44.688297 
	C387.573212,51.270210 383.906738,57.379372 380.809296,63.689960 
	C380.525940,64.267273 380.233185,64.839966 379.714294,65.714005 
z"/>
<path fill="#FDD83B" opacity="1.000000" stroke="none" 
	d="
M468.288696,147.284958 
	C457.077759,153.769943 446.130829,159.965317 435.273315,166.313660 
	C431.205078,168.692383 427.081757,168.891266 423.210938,166.575623 
	C418.784515,163.927628 418.329803,159.265152 419.144897,154.756927 
	C419.511108,152.731430 420.914459,150.228287 422.608856,149.213089 
	C436.442413,140.924713 450.410034,132.855835 464.440125,124.902275 
	C469.240479,122.180977 476.704987,123.968613 479.001282,127.864502 
	C481.893768,132.771790 481.041412,140.279984 475.299011,143.229599 
	C473.010651,144.404999 470.822205,145.774811 468.288696,147.284958 
z"/>
<path fill="#FDD83B" opacity="1.000000" stroke="none" 
	d="
M148.000183,46.998779 
	C154.260361,57.986900 160.597610,68.530487 166.626816,79.247398 
	C169.759308,84.815407 168.071594,91.107140 163.233276,93.925056 
	C158.298004,96.799423 151.695541,95.254761 148.459076,89.882248 
	C140.289230,76.320358 132.328079,62.631069 124.424927,48.911236 
	C122.044662,44.779106 124.035835,37.086529 127.792213,35.042473 
	C132.317032,32.580273 140.292877,32.713799 142.904877,38.309410 
	C144.268265,41.230156 146.248108,43.863155 148.000183,46.998779 
z"/>
<path fill="#FDD83B" opacity="1.000000" stroke="none" 
	d="
M54.659489,152.263626 
	C49.136909,149.104507 43.979931,146.056824 38.698742,143.242218 
	C32.941051,140.173676 32.116199,132.746231 35.011436,127.820496 
	C37.297062,123.931885 44.892353,122.191902 49.651619,124.925987 
	C63.265160,132.746628 76.806152,140.696457 90.283417,148.749893 
	C95.260208,151.723816 96.751045,158.335983 93.937859,163.200302 
	C91.307884,167.747879 85.212723,169.700653 80.209663,166.988602 
	C71.680763,162.365265 63.371754,157.336319 54.659489,152.263626 
z"/>
<path fill="#FDD83B" opacity="1.000000" stroke="none" 
	d="
M139.255615,439.338257 
	C142.555542,433.909454 145.541107,428.726837 148.757782,423.691833 
	C151.865448,418.827484 158.458633,417.287018 163.241287,420.078491 
	C167.895874,422.795197 169.718964,429.071960 166.842056,434.291626 
	C161.460236,444.056122 155.754440,453.641937 150.195419,463.308960 
	C148.101791,466.949677 146.073303,470.628082 143.958633,474.256409 
	C140.476166,480.231567 133.733292,482.301575 128.560013,479.029633 
	C123.430717,475.785522 122.324539,468.339447 125.737885,462.709229 
	C130.337448,455.122375 134.622391,447.344757 139.255615,439.338257 
z"/>
<path fill="#FDD83B" opacity="1.000000" stroke="none" 
	d="
M364.687775,422.284607 
	C372.910400,436.255768 380.906372,449.919495 388.867432,463.603516 
	C391.858582,468.744904 390.149353,476.144836 385.358093,479.114990 
	C380.462494,482.149811 373.804352,480.499084 370.549744,474.972076 
	C362.764374,461.750763 355.153748,448.425232 347.593414,435.073364 
	C344.562775,429.721161 345.501556,424.234253 349.652557,420.885132 
	C353.510864,417.772217 360.070892,418.259979 364.687775,422.284607 
z"/>
<path fill="#FDD83B" opacity="1.000000" stroke="none" 
	d="
M70.229858,377.282318 
	C63.662403,381.190918 57.267548,384.684998 51.069229,388.498566 
	C43.603924,393.091675 35.086231,389.694214 33.641384,381.081604 
	C32.987598,377.184418 34.310341,373.659149 38.012726,371.480896 
	C47.351360,365.986572 56.689640,360.491638 66.027657,354.996277 
	C69.654274,352.862030 73.333961,350.811920 76.892899,348.570190 
	C82.097343,345.291931 87.883263,345.001465 91.482376,348.010803 
	C96.946709,352.579742 96.553574,361.290100 90.492348,365.099152 
	C83.923897,369.226990 77.165230,373.052155 70.229858,377.282318 
z"/>
<path fill="#FDD83B" opacity="1.000000" stroke="none" 
	d="
M459.351868,361.741547 
	C464.866608,364.889282 470.160980,367.673553 475.239624,370.807404 
	C480.254120,373.901733 481.861755,380.591949 479.211060,385.303436 
	C475.913574,391.164612 469.040497,391.524719 464.306061,388.932495 
	C450.562805,381.407623 437.142456,373.285645 423.695312,365.231232 
	C418.768524,362.280243 417.283295,355.550049 420.078369,350.759583 
	C422.722137,346.228424 428.813934,344.300323 433.815948,347.016296 
	C442.337708,351.643372 450.641602,356.671539 459.351868,361.741547 
z"/>
</svg>