<?xml version="1.0" encoding="UTF-8"?>
<svg version="1.1" xmlns="http://www.w3.org/2000/svg" width="512" height="512">
<path d="M0 0 C42.19676735 -1.16650876 81.91578437 13.05905452 112.85595703 41.93310547 C113.58943359 42.63564453 114.32291016 43.33818359 115.07861328 44.06201172 C115.82240234 44.75423828 116.56619141 45.44646484 117.33251953 46.15966797 C138.11880654 66.07835344 151.72034646 93.2207577 158.07861328 121.06201172 C158.34327393 122.20041504 158.34327393 122.20041504 158.61328125 123.36181641 C163.92132733 147.31904321 162.0311458 172.45295999 156.07861328 196.06201172 C157.31809723 196.05312927 158.55758118 196.04424683 159.83462524 196.03509521 C171.51732435 195.95399774 183.19996632 195.89404055 194.88288307 195.85476303 C200.88916381 195.83389117 206.89521726 195.80558026 212.90136719 195.76025391 C218.69798389 195.71678274 224.494382 195.69287159 230.29114914 195.68250275 C232.50234798 195.67511373 234.7135349 195.66068475 236.92464066 195.63909149 C240.02261428 195.61004132 243.11968545 195.60605649 246.21777344 195.60791016 C247.58802673 195.5863385 247.58802673 195.5863385 248.98596191 195.56433105 C254.6426878 195.60093896 257.74305474 196.34603504 262.07861328 200.06201172 C263.92856442 203.761914 263.5484817 208.02368313 263.07861328 212.06201172 C260.97356737 215.61881344 259.9945452 216.75670108 256.07861328 218.06201172 C253.36016487 218.16039636 250.66737975 218.20134243 247.94877911 218.1962328 C246.68506803 218.19976114 246.68506803 218.19976114 245.39582744 218.20336077 C242.54794509 218.21006433 239.70010822 218.20959214 236.85221863 218.20918274 C234.79975433 218.21248051 232.74729067 218.21620589 230.69482785 218.22032422 C225.03520485 218.23036202 219.37559246 218.23406386 213.71596181 218.23671353 C207.61972372 218.24061124 201.52349407 218.25018985 195.42726135 218.25892639 C181.39279939 218.27776957 167.35833938 218.28794843 153.32386833 218.29638707 C146.39091053 218.30059214 139.45795359 218.30581428 132.52499652 218.3110716 C108.79989331 218.32896143 85.07478985 218.3439586 61.3496809 218.35139179 C59.86002871 218.35186655 58.37037652 218.35234244 56.88072433 218.35281945 C56.14198119 218.35305583 55.40323806 218.35329221 54.64210876 218.35353575 C50.89918253 218.35473696 47.1562563 218.35595241 43.41333008 218.35717773 C42.67053163 218.35741788 41.92773318 218.35765803 41.16242569 218.35790546 C17.07048886 218.36580119 -7.02139878 218.38923885 -31.11331413 218.42173368 C-56.57569622 218.45601438 -82.03804953 218.47574124 -107.50045508 218.47903603 C-110.29440321 218.47945358 -113.08835132 218.47993315 -115.88229942 218.48045921 C-116.91424677 218.480644 -116.91424677 218.480644 -117.96704155 218.48083252 C-129.04839859 218.48316661 -140.12969859 218.49883807 -151.21103529 218.51930106 C-162.34453034 218.53953458 -173.47795775 218.54471406 -184.61147407 218.53553043 C-190.64557747 218.5309707 -196.67949525 218.5329689 -202.71357346 218.55229187 C-208.23368575 218.56981685 -213.75347555 218.56901298 -219.27359077 218.55339458 C-221.27427144 218.55100223 -223.27497383 218.55542549 -225.27562115 218.56722323 C-227.98881986 218.58223626 -230.70086011 218.57274341 -233.41402912 218.55699635 C-234.19637353 218.56721855 -234.97871793 218.57744076 -235.78476974 218.58797273 C-240.96400475 218.52206723 -243.94039381 217.35602319 -247.92138672 214.06201172 C-249.77865288 210.3474794 -249.50639761 206.10621746 -248.92138672 202.06201172 C-246.73115754 199.23776883 -245.09121465 197.64692569 -241.92138672 196.06201172 C-240.57826542 195.97059388 -239.23071874 195.9400702 -237.88449097 195.9417572 C-237.04032623 195.94038254 -236.1961615 195.93900787 -235.32641602 195.93759155 C-234.39853271 195.94118683 -233.47064941 195.9447821 -232.51464844 195.94848633 C-231.53899933 195.9483403 -230.56335022 195.94819427 -229.55813599 195.94804382 C-226.32242638 195.94874237 -223.08677382 195.95653206 -219.85107422 195.96435547 C-217.61190828 195.96621986 -215.37274193 195.96764366 -213.13357544 195.96864319 C-207.23165771 195.97246674 -201.32976448 195.98229565 -195.42785645 195.99334717 C-189.40877616 196.00356477 -183.38969192 196.00814156 -177.37060547 196.01318359 C-165.55418844 196.02391805 -153.73778961 196.04099254 -141.92138672 196.06201172 C-142.3401004 194.42672012 -142.3401004 194.42672012 -142.76727295 192.75839233 C-143.13486903 191.30934237 -143.50231297 189.86025381 -143.86962891 188.41113281 C-144.05347137 187.69481186 -144.23731384 186.97849091 -144.42672729 186.24046326 C-145.81520192 180.74377888 -146.71970117 175.34249124 -147.17138672 169.68701172 C-147.28740234 168.49011719 -147.28740234 168.49011719 -147.40576172 167.26904297 C-150.89551034 128.69485731 -138.9626973 89.34334399 -114.92138672 59.06201172 C-112.62523003 56.37463088 -110.28587546 53.75168672 -107.87451172 51.16748047 C-106.28077948 49.44943711 -104.80679746 47.71335836 -103.35888672 45.87451172 C-100.17089114 42.19605529 -96.67816795 39.14793916 -92.92138672 36.06201172 C-91.98294922 35.28599609 -91.04451172 34.50998047 -90.07763672 33.71044922 C-82.42448643 27.52966302 -74.35532052 22.58582819 -65.66796875 17.99023438 C-64.22973853 17.22588558 -62.8058431 16.43462586 -61.38623047 15.63623047 C-42.9614969 5.66022834 -20.8380729 0.67253755 0 0 Z " fill="#FEB700" transform="translate(248.92138671875,198.93798828125)"/>
<path d="M0 0 C42.19676735 -1.16650876 81.91578437 13.05905452 112.85595703 41.93310547 C113.58943359 42.63564453 114.32291016 43.33818359 115.07861328 44.06201172 C115.82240234 44.75423828 116.56619141 45.44646484 117.33251953 46.15966797 C138.11880654 66.07835344 151.72034646 93.2207577 158.07861328 121.06201172 C158.34327393 122.20041504 158.34327393 122.20041504 158.61328125 123.36181641 C163.92132733 147.31904321 162.0311458 172.45295999 156.07861328 196.06201172 C157.31809723 196.05312927 158.55758118 196.04424683 159.83462524 196.03509521 C171.51732435 195.95399774 183.19996632 195.89404055 194.88288307 195.85476303 C200.88916381 195.83389117 206.89521726 195.80558026 212.90136719 195.76025391 C218.69798389 195.71678274 224.494382 195.69287159 230.29114914 195.68250275 C232.50234798 195.67511373 234.7135349 195.66068475 236.92464066 195.63909149 C240.02261428 195.61004132 243.11968545 195.60605649 246.21777344 195.60791016 C247.58802673 195.5863385 247.58802673 195.5863385 248.98596191 195.56433105 C254.6426878 195.60093896 257.74305474 196.34603504 262.07861328 200.06201172 C263.92856442 203.761914 263.5484817 208.02368313 263.07861328 212.06201172 C260.97356737 215.61881344 259.9945452 216.75670108 256.07861328 218.06201172 C253.36016487 218.16039636 250.66737975 218.20134243 247.94877911 218.1962328 C246.68506803 218.19976114 246.68506803 218.19976114 245.39582744 218.20336077 C242.54794509 218.21006433 239.70010822 218.20959214 236.85221863 218.20918274 C234.79975433 218.21248051 232.74729067 218.21620589 230.69482785 218.22032422 C225.03520485 218.23036202 219.37559246 218.23406386 213.71596181 218.23671353 C207.61972372 218.24061124 201.52349407 218.25018985 195.42726135 218.25892639 C181.39279939 218.27776957 167.35833938 218.28794843 153.32386833 218.29638707 C146.39091053 218.30059214 139.45795359 218.30581428 132.52499652 218.3110716 C108.79989331 218.32896143 85.07478985 218.3439586 61.3496809 218.35139179 C59.86002871 218.35186655 58.37037652 218.35234244 56.88072433 218.35281945 C56.14198119 218.35305583 55.40323806 218.35329221 54.64210876 218.35353575 C50.89918253 218.35473696 47.1562563 218.35595241 43.41333008 218.35717773 C42.67053163 218.35741788 41.92773318 218.35765803 41.16242569 218.35790546 C17.07048886 218.36580119 -7.02139878 218.38923885 -31.11331413 218.42173368 C-56.57569622 218.45601438 -82.03804953 218.47574124 -107.50045508 218.47903603 C-110.29440321 218.47945358 -113.08835132 218.47993315 -115.88229942 218.48045921 C-116.91424677 218.480644 -116.91424677 218.480644 -117.96704155 218.48083252 C-129.04839859 218.48316661 -140.12969859 218.49883807 -151.21103529 218.51930106 C-162.34453034 218.53953458 -173.47795775 218.54471406 -184.61147407 218.53553043 C-190.64557747 218.5309707 -196.67949525 218.5329689 -202.71357346 218.55229187 C-208.23368575 218.56981685 -213.75347555 218.56901298 -219.27359077 218.55339458 C-221.27427144 218.55100223 -223.27497383 218.55542549 -225.27562115 218.56722323 C-227.98881986 218.58223626 -230.70086011 218.57274341 -233.41402912 218.55699635 C-234.19637353 218.56721855 -234.97871793 218.57744076 -235.78476974 218.58797273 C-240.96400475 218.52206723 -243.94039381 217.35602319 -247.92138672 214.06201172 C-249.77865288 210.3474794 -249.50639761 206.10621746 -248.92138672 202.06201172 C-246.73115754 199.23776883 -245.09121465 197.64692569 -241.92138672 196.06201172 C-240.57826542 195.97059388 -239.23071874 195.9400702 -237.88449097 195.9417572 C-237.04032623 195.94038254 -236.1961615 195.93900787 -235.32641602 195.93759155 C-234.39853271 195.94118683 -233.47064941 195.9447821 -232.51464844 195.94848633 C-231.53899933 195.9483403 -230.56335022 195.94819427 -229.55813599 195.94804382 C-226.32242638 195.94874237 -223.08677382 195.95653206 -219.85107422 195.96435547 C-217.61190828 195.96621986 -215.37274193 195.96764366 -213.13357544 195.96864319 C-207.23165771 195.97246674 -201.32976448 195.98229565 -195.42785645 195.99334717 C-189.40877616 196.00356477 -183.38969192 196.00814156 -177.37060547 196.01318359 C-165.55418844 196.02391805 -153.73778961 196.04099254 -141.92138672 196.06201172 C-142.3401004 194.42672012 -142.3401004 194.42672012 -142.76727295 192.75839233 C-143.13486903 191.30934237 -143.50231297 189.86025381 -143.86962891 188.41113281 C-144.05347137 187.69481186 -144.23731384 186.97849091 -144.42672729 186.24046326 C-145.81520192 180.74377888 -146.71970117 175.34249124 -147.17138672 169.68701172 C-147.28740234 168.49011719 -147.28740234 168.49011719 -147.40576172 167.26904297 C-150.89551034 128.69485731 -138.9626973 89.34334399 -114.92138672 59.06201172 C-112.62523003 56.37463088 -110.28587546 53.75168672 -107.87451172 51.16748047 C-106.28077948 49.44943711 -104.80679746 47.71335836 -103.35888672 45.87451172 C-100.17089114 42.19605529 -96.67816795 39.14793916 -92.92138672 36.06201172 C-91.98294922 35.28599609 -91.04451172 34.50998047 -90.07763672 33.71044922 C-82.42448643 27.52966302 -74.35532052 22.58582819 -65.66796875 17.99023438 C-64.22973853 17.22588558 -62.8058431 16.43462586 -61.38623047 15.63623047 C-42.9614969 5.66022834 -20.8380729 0.67253755 0 0 Z M-89.92138672 64.06201172 C-90.68837891 64.83158203 -91.45537109 65.60115234 -92.24560547 66.39404297 C-111.21569313 86.30479614 -120.48139661 111.3372305 -124.92138672 138.06201172 C-125.10830078 139.17189453 -125.29521484 140.28177734 -125.48779297 141.42529297 C-127.71839912 160.13425091 -124.8395018 178.02892309 -119.92138672 196.06201172 C-36.43138672 196.06201172 47.05861328 196.06201172 133.07861328 196.06201172 C137.35578672 182.16119805 139.43886197 170.10973038 139.39428711 155.80615234 C139.39112614 153.69560001 139.41470113 151.58645502 139.43994141 149.47607422 C139.59870286 115.68052754 123.84766552 85.23096952 101.07861328 61.06201172 C100.47919922 60.39814453 99.87978516 59.73427734 99.26220703 59.05029297 C76.74644743 35.07562885 42.91857334 22.95439907 10.68017578 21.86279297 C-28.86733906 20.92095508 -62.32198247 36.20547017 -89.92138672 64.06201172 Z " fill="#010100" transform="translate(248.92138671875,198.93798828125)"/>
<path d="M0 0 C1.51058866 -0.0057624 3.02117032 -0.01370433 4.53173733 -0.02363622 C8.67976445 -0.04451686 12.82721671 -0.0341891 16.97524595 -0.01870513 C21.44977439 -0.00740044 25.92420342 -0.02484994 30.39871216 -0.03860474 C39.16308459 -0.06085112 47.92724307 -0.05602973 56.69162393 -0.04154153 C63.81387353 -0.0302548 70.93606312 -0.02871594 78.05831909 -0.03416061 C79.5781745 -0.03530986 79.5781745 -0.03530986 81.12873405 -0.03648233 C83.18703248 -0.03808094 85.24533089 -0.039702 87.30362928 -0.04134528 C106.60946622 -0.05560689 125.9151845 -0.03920359 145.22100198 -0.01234345 C161.79037911 0.00999569 178.35958111 0.00611568 194.92895508 -0.01693726 C214.16516663 -0.04368798 233.40127416 -0.05423355 252.63750172 -0.03887594 C254.68827627 -0.03728317 256.73905085 -0.03571132 258.78982544 -0.03416061 C259.7988756 -0.03338924 260.80792576 -0.03261786 261.84755319 -0.03182311 C268.96218608 -0.02750393 276.07675305 -0.03479736 283.19137573 -0.04655838 C291.8604302 -0.06057382 300.52925828 -0.05680356 309.19828677 -0.03015466 C313.62238067 -0.01700358 318.04609694 -0.01188595 322.47018814 -0.02840042 C326.51925275 -0.04328651 330.56758932 -0.0351346 334.61658776 -0.00851266 C336.08217782 -0.00292191 337.54782924 -0.00578158 339.01337993 -0.0178916 C351.33375643 -0.11189642 351.33375643 -0.11189642 355.27818298 3.04789162 C358.25126881 6.63216419 358.80979333 9.06008694 358.42407227 13.63491821 C357.21088334 17.20708559 356.2350134 19.03552233 353.1995849 21.27911717 C349.93539847 22.87362887 347.76426203 23.01184683 344.14087009 23.01523495 C342.86665906 23.02367489 341.59244802 23.03211483 340.27962452 23.04081053 C338.86785745 23.03501542 337.45609153 23.0289344 336.04432678 23.02259827 C334.54285627 23.02677083 333.04138891 23.03224793 331.53992742 23.03891808 C327.41257229 23.05340161 323.28541635 23.04911894 319.15805018 23.04175127 C314.70738311 23.03702908 310.25675972 23.04952101 305.80610657 23.05976868 C297.08643056 23.07698058 288.36682654 23.07779175 279.64713795 23.07255577 C272.56110675 23.06851735 265.47509687 23.06995373 258.3890667 23.07530403 C256.87733414 23.07642666 256.87733414 23.07642666 255.33506153 23.07757198 C253.28779558 23.07910342 251.24052964 23.08064177 249.1932637 23.08218694 C229.98665708 23.0959206 210.78009118 23.09046818 191.57348549 23.07900173 C173.99533083 23.06906806 156.41728141 23.08201082 138.83914299 23.10593592 C120.79716676 23.13030766 102.7552396 23.13993956 84.71324724 23.1332832 C74.58111444 23.12978674 64.4490626 23.13205115 54.31694221 23.14953423 C45.69181807 23.16423213 37.0668319 23.16492327 28.44171054 23.14746331 C24.03994184 23.13893108 19.63841987 23.13685779 15.23666382 23.15211487 C11.20801658 23.165906 7.17982873 23.16127122 3.15120845 23.14187563 C1.69298492 23.1380981 0.23472508 23.14108788 -1.22346627 23.15148728 C-3.20456935 23.16461249 -5.18579638 23.15071713 -7.16688442 23.13548946 C-8.26764134 23.13538213 -9.36839826 23.13527479 -10.50251144 23.1351642 C-14.34607146 22.50956542 -16.53432768 21.02060137 -19.57592773 18.63491821 C-21.85671418 15.06499161 -21.72052138 11.87611976 -21.45092773 7.69741821 C-17.576783 -1.43449439 -8.40007653 -0.06941084 0 0 Z " fill="#000000" transform="translate(87.575927734375,442.3650817871094)"/>
<path d="M0 0 C0.79310231 -0.00467997 1.58620462 -0.00935994 2.40334034 -0.01418173 C5.05186161 -0.02611526 7.69986387 -0.01668104 10.34838867 -0.00723267 C12.25084738 -0.0112991 14.15330373 -0.01664138 16.05575562 -0.02316284 C21.21685456 -0.03683369 26.3777735 -0.0315387 31.53887558 -0.02202559 C36.94128655 -0.01442783 42.34368217 -0.02147492 47.74609375 -0.02618408 C56.81830613 -0.03164129 65.89044523 -0.02445091 74.96264648 -0.01016235 C85.44981541 0.00616406 95.93680935 0.00087553 106.42397404 -0.01564157 C115.42964964 -0.02925741 124.43527259 -0.03117561 133.44095516 -0.02332556 C138.81895249 -0.0186496 144.19686758 -0.01802214 149.57485962 -0.02793503 C154.63102022 -0.03660379 159.68695533 -0.03058431 164.74309158 -0.01325226 C166.59823863 -0.00928695 168.45340468 -0.01042221 170.30854416 -0.01704025 C172.84185688 -0.0252441 175.37444803 -0.01494841 177.90771484 0 C179.00762615 -0.01003825 179.00762615 -0.01003825 180.12975788 -0.02027929 C184.79638016 0.03309321 187.999934 0.89800249 191.95385742 3.38095093 C194.88857982 7.4516949 195.23822932 10.54641223 194.76635742 15.35360718 C193.47008241 18.58806262 191.64613716 20.18566054 188.95385742 22.38095093 C186.03697359 22.87368777 183.70501388 23.05858649 180.79345703 23.01586914 C179.97600226 23.02366909 179.1585475 23.03146905 178.31632137 23.03950536 C175.57915519 23.05943762 172.84337748 23.04365649 170.10620117 23.02792358 C168.1431497 23.03469917 166.18010459 23.04360196 164.21707153 23.05447388 C158.88646506 23.07728071 153.55634208 23.06842502 148.22572708 23.05257845 C142.64933206 23.03992672 137.07297866 23.05165755 131.49658203 23.05950928 C122.13167888 23.06860794 112.76697284 23.05661216 103.40209961 23.0328064 C92.57230426 23.00559482 81.74297955 23.01440882 70.91319561 23.04193842 C61.61793582 23.06462223 52.32281778 23.0678331 43.02753925 23.05474508 C37.47456967 23.04694661 31.92182137 23.04591999 26.36886597 23.06242752 C21.14842555 23.07686231 15.92859238 23.06686836 10.70821762 23.03795624 C8.79138065 23.03134017 6.87449265 23.03325197 4.95767593 23.04426956 C2.34251145 23.05791624 -0.27070234 23.04082121 -2.88574219 23.01586914 C-4.02606447 23.03259955 -4.02606447 23.03259955 -5.18942356 23.04966795 C-9.17565513 22.9757921 -10.87354341 22.52168864 -14.00538635 19.96797752 C-16.80795107 16.41522126 -17.33432722 13.83471356 -17.04614258 9.38095093 C-15.80748328 5.51924842 -14.86955116 3.89802747 -11.42793274 1.73679161 C-7.51688131 0.16875741 -4.14304679 -0.03781117 0 0 Z " fill="#000000" transform="translate(167.046142578125,489.6190490722656)"/>
<path d="M0 0 C0.81726563 -0.0721875 1.63453125 -0.144375 2.4765625 -0.21875 C7.20302154 0.95330992 9.93025193 4.17000856 13.375 7.5 C14.42074631 8.4930075 15.46683194 9.48565772 16.51318359 10.47802734 C19.50576453 13.33123233 22.46119439 16.22011792 25.40429688 19.12426758 C26.63935297 20.33759584 27.88064137 21.5446112 29.12792969 22.74536133 C30.95165533 24.50197501 32.75471298 26.27768842 34.5546875 28.05859375 C35.10986053 28.58593613 35.66503357 29.1132785 36.23703003 29.65660095 C40.22928342 33.6703794 41.54001285 36.87939883 42.375 42.5 C41.25917831 46.50383078 40.27871124 48.72180421 37.125 51.4375 C33.61898857 52.79209532 31.10920699 52.90009361 27.375 52.5 C23.22463947 50.41463064 20.28790206 47.62391279 17.0625 44.3125 C16.17949219 43.41144531 15.29648437 42.51039062 14.38671875 41.58203125 C13.72285156 40.89496094 13.05898438 40.20789062 12.375 39.5 C12.37135437 40.31574997 12.36770874 41.13149994 12.36395264 41.9719696 C12.32605439 49.66722233 12.26918153 57.3619919 12.19109726 65.0569334 C12.15162144 69.01282577 12.11943373 72.96849551 12.10400391 76.92456055 C12.0888376 80.74386903 12.05439369 84.5625655 12.00669098 88.38160133 C11.99187669 89.83715298 11.98395895 91.29279202 11.98311615 92.74841881 C11.98074464 94.79086595 11.95365602 96.83162418 11.92089844 98.8737793 C11.90757477 100.61584908 11.90757477 100.61584908 11.89398193 102.39311218 C11.26871423 106.13628025 9.97776001 107.7912543 7.375 110.5 C4.10565722 112.78853994 1.3051848 112.97162218 -2.625 112.5 C-6.2828218 110.46006092 -8.29446174 108.99580738 -10.625 105.5 C-10.9034729 102.63362122 -10.9034729 102.63362122 -10.94384766 99.10083008 C-10.95389328 98.45665634 -10.9639389 97.8124826 -10.97428894 97.14878845 C-11.00514705 95.02237835 -11.02216293 92.8960943 -11.0390625 90.76953125 C-11.05777209 89.29407159 -11.07734534 87.81862265 -11.0977478 86.34318542 C-11.14909736 82.46182575 -11.18870781 78.58043137 -11.22589111 74.69891357 C-11.26591316 70.73733923 -11.31701368 66.7759096 -11.3671875 62.81445312 C-11.46398018 55.04306799 -11.5483741 47.27161291 -11.625 39.5 C-12.46804687 40.35464844 -13.31109375 41.20929687 -14.1796875 42.08984375 C-15.28632593 43.20586047 -16.39310402 44.32173872 -17.5 45.4375 C-18.05558594 46.00146484 -18.61117187 46.56542969 -19.18359375 47.14648438 C-24.42696301 52.4214402 -24.42696301 52.4214402 -29.4375 52.75 C-33.27103185 52.70129814 -35.56408073 51.93073001 -38.625 49.5 C-40.66934593 46.4334811 -41.01488272 45.35950668 -41.1875 41.8125 C-41.25066406 41.00425781 -41.31382812 40.19601563 -41.37890625 39.36328125 C-40.14437245 34.67461143 -36.95693865 31.92125044 -33.625 28.5 C-33.1391745 28.00071991 -32.653349 27.50143982 -32.15280151 26.98703003 C-28.68638116 23.43557169 -25.186374 19.91886694 -21.67114258 16.41577148 C-19.79585437 14.54590247 -17.92604535 12.67067101 -16.05664062 10.79492188 C-14.86490435 9.60384539 -13.67285845 8.4130786 -12.48046875 7.22265625 C-11.92215866 6.66232193 -11.36384857 6.10198761 -10.78862 5.52467346 C-7.11797366 1.8763719 -5.15593838 0.31925315 0 0 Z " fill="#000000" transform="translate(255.625,-0.5)"/>
<path d="M0 0 C1.52255975 0.86398107 3.03414374 1.74754186 4.53515625 2.6484375 C5.32349854 3.10702148 6.11184082 3.56560547 6.92407227 4.03808594 C9.15995808 5.34849859 11.3796214 6.68311073 13.59765625 8.0234375 C14.60828125 8.61382812 15.61890625 9.20421875 16.66015625 9.8125 C21.12219719 12.55724229 24.0950326 14.76425473 25.59765625 20.0234375 C25.50445803 25.3357363 24.28817154 28.22108842 20.59765625 32.0234375 C16.96854009 33.83799558 13.48910381 33.69988321 9.59765625 33.0234375 C5.52941842 31.29198836 1.75977899 29.17032688 -2.02490234 26.8894043 C-3.78193702 25.83317629 -5.55633694 24.81257125 -7.3359375 23.79492188 C-16.8799584 18.17918053 -16.8799584 18.17918053 -19.40234375 13.0234375 C-20.16492976 9.07593347 -19.74898888 5.8207213 -18.15234375 2.1484375 C-13.37419191 -3.65360403 -6.28354963 -3.22338386 0 0 Z " fill="#000000" transform="translate(86.40234375,242.9765625)"/>
<path d="M0 0 C0.80515045 -0.00902847 1.6103009 -0.01805695 2.43984985 -0.02735901 C4.14280479 -0.04186106 5.84581545 -0.05074814 7.54882812 -0.05444336 C10.14809592 -0.06633321 12.74498378 -0.1155087 15.34375 -0.16601562 C16.99998844 -0.17548105 18.65624143 -0.18271551 20.3125 -0.1875 C21.08661224 -0.20703232 21.86072449 -0.22656464 22.65829468 -0.24668884 C26.73901621 -0.21274704 28.54722733 0.17468475 31.75634766 2.78100586 C34.95189698 6.85277896 35.14106739 9.17902156 34.7890625 14.37109375 C32.96440715 18.59661141 30.88960979 20.37990024 26.7890625 22.37109375 C22.0836742 22.91403579 17.37456419 22.844116 12.64233398 22.81713867 C10.36154847 22.808631 8.08327268 22.8374084 5.80273438 22.86914062 C4.34114658 22.87075307 2.87955438 22.87017427 1.41796875 22.8671875 C-0.5609436 22.86996704 -0.5609436 22.86996704 -2.57983398 22.87280273 C-7.31712389 22.21825216 -10.66950475 20.40298238 -13.5859375 16.55859375 C-14.82338976 12.22751083 -14.80843267 8.65144053 -12.8984375 4.55859375 C-9.25745446 -0.16119908 -5.50819106 0.03795975 0 0 Z " fill="#000000" transform="translate(53.2109375,343.62890625)"/>
<path d="M0 0 C0.84304687 -0.03996094 1.68609375 -0.07992187 2.5546875 -0.12109375 C7.2141191 0.89151828 9.23624832 4.07744061 11.72021484 7.87866211 C13.48395133 10.76972227 15.18786094 13.68861977 16.875 16.625 C17.46410156 17.63498047 18.05320313 18.64496094 18.66015625 19.68554688 C24.88359595 30.37984842 24.88359595 30.37984842 24.125 37.4375 C22.88967542 40.27874653 21.8694561 41.85847859 19.4375 43.75 C14.95668828 45.08213321 10.91860454 45.31090425 6.72949219 43.27099609 C2.20908125 40.08874205 0.03563439 35.27396909 -2.66088867 30.54223633 C-3.68167366 28.7601715 -4.73260327 26.99859608 -5.78710938 25.23632812 C-11.99286869 14.48171666 -11.99286869 14.48171666 -10.875 7.4375 C-8.48488008 2.20199922 -5.75247073 0.14862006 0 0 Z " fill="#000000" transform="translate(152.875,165.5625)"/>
<path d="M0 0 C3.99575683 2.11096587 6.42973419 3.75120406 8 8 C8.40024318 12.54124657 8.371612 17.08747596 8.37060547 21.64404297 C8.37497269 23.86113658 8.41129628 26.07622783 8.44921875 28.29296875 C8.45508894 29.71353491 8.45905698 31.13411046 8.4609375 32.5546875 C8.46915527 33.83843262 8.47737305 35.12217773 8.48583984 36.44482422 C7.91811062 40.59923276 6.5888963 42.74523157 4 46 C0.5905957 48.58644464 -2.8386449 48.36503115 -7 48 C-10.5386994 46.34860695 -11.81070153 45.28394771 -14 42 C-14.2318588 39.30157 -14.35194206 36.70872295 -14.37109375 34.0078125 C-14.38012222 33.22485809 -14.3891507 32.44190369 -14.39845276 31.63522339 C-14.41295339 29.97934796 -14.42184154 28.32341526 -14.42553711 26.66748047 C-14.43742654 24.14061335 -14.48660206 21.61619489 -14.53710938 19.08984375 C-14.54657492 17.47917856 -14.55380933 15.8684984 -14.55859375 14.2578125 C-14.57812607 13.50557404 -14.59765839 12.75333557 -14.61778259 11.978302 C-14.58330723 7.94699846 -14.1720798 6.21090279 -11.59008789 3.04638672 C-7.52627348 -0.16436758 -5.20328241 -0.43360687 0 0 Z " fill="#000000" transform="translate(259,138)"/>
<path d="M0 0 C4.01008788 2.11853699 6.34527302 3.7781265 8 8 C8.22265625 10.1484375 8.22265625 10.1484375 8.0625 12.375 C8.01802734 13.46941406 8.01802734 13.46941406 7.97265625 14.5859375 C5.14620698 21.60098027 -3.67139808 25.4152468 -9.9375 28.875 C-10.79279297 29.37257813 -11.64808594 29.87015625 -12.52929688 30.3828125 C-18.00824031 33.42527689 -21.72946848 34.703624 -28 34 C-30.84124653 32.76467542 -32.42097859 31.7444561 -34.3125 29.3125 C-35.34190439 25.84995797 -35.89095743 22.50152499 -35 19 C-31.05243561 12.92108257 -25.57377446 10.09618027 -19.3125 6.6875 C-18.35021484 6.15060547 -17.38792969 5.61371094 -16.39648438 5.06054688 C-6.35166747 -0.52930562 -6.35166747 -0.52930562 0 0 Z " fill="#000000" transform="translate(435,242)"/>
<path d="M0 0 C1.60138494 -0.01654759 3.20269637 -0.04382244 4.80371094 -0.08203125 C7.11684327 -0.13692965 9.42824647 -0.15869153 11.74194336 -0.17333984 C12.45357132 -0.19600922 13.16519928 -0.21867859 13.89839172 -0.24203491 C17.84212926 -0.2253555 19.43835552 0.21932516 22.52587891 2.7578125 C25.77210873 6.82009515 25.95077448 9.13800264 25.59741211 14.35009766 C23.77279893 18.57551764 21.68493666 20.33949089 17.59741211 22.35009766 C14.37109375 22.73828125 14.37109375 22.73828125 10.75756836 22.74853516 C9.44723633 22.75240234 8.1369043 22.75626953 6.78686523 22.76025391 C6.10889893 22.75396973 5.43093262 22.74768555 4.73242188 22.74121094 C2.66916476 22.72516959 0.60787384 22.74107054 -1.45532227 22.76025391 C-3.42275391 22.75445312 -3.42275391 22.75445312 -5.42993164 22.74853516 C-6.62352295 22.74515137 -7.81711426 22.74176758 -9.046875 22.73828125 C-12.80742545 22.30326668 -15.20318784 21.3542677 -18.40258789 19.35009766 C-20.49549005 15.77191009 -21.4231369 13.37754813 -21.34008789 9.22509766 C-20.25210317 5.88861119 -18.80039766 3.89322923 -16.40258789 1.35009766 C-11.82292912 -0.93973173 -5.08663349 0.03853116 0 0 Z " fill="#000000" transform="translate(444.402587890625,343.64990234375)"/>
<path d="M0 0 C3.42422405 0.60825032 5.11417354 1.80779441 7.375 4.421875 C9.37058991 7.7780944 9.61803255 10.41737714 9.00830078 14.25708008 C7.59243871 19.09688306 4.71982629 23.32535653 2.125 27.609375 C1.55136719 28.59357422 0.97773438 29.57777344 0.38671875 30.59179688 C-5.13452603 39.84208284 -5.13452603 39.84208284 -9.625 42.421875 C-13.97076118 43.43390158 -17.61379698 42.93823399 -21.5625 40.921875 C-24.22157172 37.69875777 -25.68262289 34.64995477 -25.625 30.421875 C-23.56337181 24.76969302 -20.65397033 19.55541587 -17.75 14.296875 C-17.32847656 13.51183594 -16.90695312 12.72679687 -16.47265625 11.91796875 C-12.29280709 4.33799764 -9.17050125 -0.49127685 0 0 Z " fill="#000000" transform="translate(359.625,167.578125)"/>
</svg>
