<?xml version="1.0" encoding="UTF-8"?>
<svg version="1.1" xmlns="http://www.w3.org/2000/svg" width="512" height="512">
<path d="M0 0 C23.22565501 18.9436205 38.31104963 46.62653977 41.3449707 76.46289062 C41.52070325 78.46610277 41.66696826 80.47183604 41.81152344 82.47753906 C41.88371094 83.46625 41.95589844 84.45496094 42.03027344 85.47363281 C42.59525544 102.06997912 38.56807343 118.06928848 32.81152344 133.47753906 C32.48152344 134.46753906 32.15152344 135.45753906 31.81152344 136.47753906 C32.39417969 136.85523438 32.97683594 137.23292969 33.57714844 137.62207031 C54.58241925 151.72466565 69.55459692 171.45897257 74.81152344 196.47753906 C79.38195773 220.97806385 75.16147516 244.57704377 61.76074219 265.71191406 C59.86097559 268.3826539 57.88770737 270.94232055 55.81152344 273.47753906 C55.24820312 274.19167969 54.68488281 274.90582031 54.10449219 275.64160156 C40.46635091 292.18623197 18.85134239 302.64381126 -2.18847656 305.47753906 C-6.92134104 305.7830689 -11.64595193 305.84798053 -16.38769531 305.89160156 C-17.70389359 305.91096771 -19.02009186 305.93033386 -20.37617493 305.95028687 C-23.83655056 306.00109953 -27.29696459 306.0409934 -30.75750732 306.07843018 C-34.30425105 306.1187933 -37.85084216 306.16973629 -41.39746094 306.21972656 C-48.32768732 306.31588137 -55.25801226 306.40047472 -62.18847656 306.47753906 C-61.9816626 307.08750732 -61.77484863 307.69747559 -61.56176758 308.32592773 C-60.62165091 311.10456518 -59.68627261 313.88477547 -58.75097656 316.66503906 C-58.26274414 318.10459961 -58.26274414 318.10459961 -57.76464844 319.57324219 C-57.45205078 320.50458984 -57.13945312 321.4359375 -56.81738281 322.39550781 C-56.52935791 323.24910889 -56.24133301 324.10270996 -55.94458008 324.98217773 C-52.98060788 334.76414733 -52.33901616 347.21616355 -57.18847656 356.47753906 C-62.72847914 365.54299782 -69.88891073 371.61900434 -80.18847656 374.47753906 C-90.36636803 376.48832682 -100.0577065 375.29429153 -109.00097656 369.85253906 C-116.98843484 363.96323559 -121.99319063 356.13679718 -124.18847656 346.47753906 C-126.18609604 332.38112994 -120.80765838 318.12069816 -115.18847656 305.47753906 C-154.45847656 305.80753906 -193.72847656 306.13753906 -234.18847656 306.47753906 C-230.88847656 314.72753906 -227.58847656 322.97753906 -224.18847656 331.47753906 C-219.47277146 345.05876976 -215.95190713 358.21743194 -221.37597656 372.16503906 C-225.94413496 381.49222598 -232.70368752 387.54093967 -242.43847656 391.35253906 C-252.28630669 394.21767431 -262.10293964 393.04869983 -271.18847656 388.47753906 C-279.47896467 383.61263458 -285.0152912 376.49606587 -288.18847656 367.47753906 C-288.87597656 364.66503906 -288.87597656 364.66503906 -289.18847656 361.47753906 C-289.26453125 360.84074219 -289.34058594 360.20394531 -289.41894531 359.54785156 C-290.55924094 341.73458467 -280.99495574 321.97393357 -273.18847656 306.47753906 C-273.99232788 306.47389343 -274.7961792 306.4702478 -275.62438965 306.4664917 C-283.27206133 306.42831943 -290.91926144 306.37114316 -298.5666275 306.29363632 C-302.49641878 306.25445044 -306.42599565 306.2221229 -310.35595703 306.20654297 C-314.16233906 306.19118265 -317.96813044 306.15640602 -321.77424622 306.10923004 C-323.21233427 306.09461258 -324.65050674 306.08650962 -326.08866882 306.08565521 C-339.39121383 306.06983296 -352.64271802 304.14736613 -364.50097656 297.72753906 C-365.1592041 297.38319824 -365.81743164 297.03885742 -366.49560547 296.68408203 C-387.74096265 285.28653618 -401.1617971 267.66281113 -408.50097656 244.85253906 C-414.19024393 222.11869109 -409.93433756 199.38900092 -398.18847656 179.47753906 C-385.59723327 159.42762755 -366.84196065 147.4877732 -344.02832031 142.25878906 C-339.42214777 141.32162273 -334.88217525 140.70319765 -330.18847656 140.47753906 C-330.60419922 138.97513672 -330.60419922 138.97513672 -331.02832031 137.44238281 C-331.39442609 136.09999497 -331.76029907 134.75754363 -332.12597656 133.41503906 C-332.30837891 132.75826172 -332.49078125 132.10148438 -332.67871094 131.42480469 C-339.02083576 108.01659851 -334.42174283 82.2827214 -322.93066406 61.17675781 C-309.21698243 37.50986874 -286.71607386 19.91080724 -260.26000977 12.76220703 C-232.81407471 5.8858087 -204.50782079 10.07454318 -180.18847656 24.47753906 C-177.91740387 26.01814978 -175.76893831 27.58502313 -173.66894531 29.34863281 C-172.06374713 30.69899413 -172.06374713 30.69899413 -169.18847656 31.47753906 C-168.80949219 30.40826172 -168.80949219 30.40826172 -168.42285156 29.31738281 C-161.61849785 13.66306272 -145.40271698 0.11298242 -131.18847656 -8.52246094 C-130.62080566 -8.87002441 -130.05313477 -9.21758789 -129.46826172 -9.57568359 C-88.8976383 -34.00808954 -36.83327307 -28.66580852 0 0 Z " fill="#A2D3F6" transform="translate(410.1884765625,102.5224609375)"/>
<path d="M0 0 C23.22565501 18.9436205 38.31104963 46.62653977 41.3449707 76.46289062 C41.52070325 78.46610277 41.66696826 80.47183604 41.81152344 82.47753906 C41.88371094 83.46625 41.95589844 84.45496094 42.03027344 85.47363281 C42.57981914 101.6165379 39.94413981 122.7786145 30.81152344 136.47753906 C26.67600923 135.12280165 22.56093396 133.75724863 18.48339844 132.23535156 C16.72769531 131.58179688 16.72769531 131.58179688 14.93652344 130.91503906 C13.30070312 130.29435547 13.30070312 130.29435547 11.63183594 129.66113281 C1.15629458 126.415643 -9.01814813 126.22398664 -19.87597656 126.35253906 C-21.36750696 126.36259615 -22.85904398 126.37171714 -24.35058594 126.37988281 C-27.9633563 126.40166362 -31.57587249 126.43604056 -35.18847656 126.47753906 C-35.56721924 125.18408569 -35.56721924 125.18408569 -35.95361328 123.86450195 C-42.32502927 102.55512312 -54.10989128 87.52052521 -73.41113281 76.66503906 C-93.13275663 66.88976084 -112.38376308 66.2063713 -133.18847656 72.47753906 C-134.50685884 72.85733051 -135.82585197 73.23500927 -137.14550781 73.61035156 C-138.1496875 73.89652344 -139.15386719 74.18269531 -140.18847656 74.47753906 C-140.44951172 73.95434082 -140.71054687 73.43114258 -140.97949219 72.89208984 C-145.9395591 63.02190416 -150.74671721 53.74079133 -158.18847656 45.47753906 C-159.23024192 44.20678663 -160.27191573 42.93595914 -161.31347656 41.66503906 C-164.00318742 38.5467479 -166.95323553 36.01951416 -170.18847656 33.47753906 C-163.80614742 15.78844407 -146.86095546 0.93314391 -131.18847656 -8.52246094 C-130.62225586 -8.86857422 -130.05603516 -9.2146875 -129.47265625 -9.57128906 C-88.90192228 -34.00823698 -36.8354693 -28.66751775 0 0 Z " fill="#FCD020" transform="translate(410.1884765625,102.5224609375)"/>
<path d="M0 0 C3.15162601 2.65873473 4.70350878 6.04079762 6.46875 9.6796875 C6.79033081 10.32946564 7.11191162 10.97924377 7.4432373 11.64871216 C8.46789464 13.72137101 9.48433602 15.7979214 10.5 17.875 C11.51701637 19.94423531 12.53577559 22.01258551 13.5567627 24.0798645 C14.19048488 25.36411843 14.82172631 26.64960051 15.45007324 27.93649292 C17.15184168 31.39721572 19.00611286 34.70146637 21 38 C29.66984085 55.64862445 39.48477042 77.61053411 34.0390625 97.51171875 C30.02258894 107.91105954 23.86755811 114.13853306 13.875 119.04296875 C4.61175075 122.6699395 -5.41298019 122.0352655 -14.5 118.2578125 C-24.03641977 113.45980131 -30.46211292 106.05504749 -34 96 C-34.6875 93.1875 -34.6875 93.1875 -35 90 C-35.07605469 89.36320312 -35.15210937 88.72640625 -35.23046875 88.0703125 C-36.89840238 62.01448446 -18.87916923 34.06231341 -7 12 C-6.43071777 10.94087402 -5.86143555 9.88174805 -5.27490234 8.79052734 C-1.13342697 1.13342697 -1.13342697 1.13342697 0 0 Z " fill="#60A2D7" transform="translate(156,374)"/>
<path d="M0 0 C3.83610012 1.27870004 4.33454517 3.09076787 6.08283997 6.57354736 C6.46413559 7.35880798 6.84543121 8.1440686 7.23828125 8.953125 C7.64153122 9.764328 8.04478119 10.57553101 8.46025085 11.41131592 C9.75373913 14.01967863 11.03302467 16.63473991 12.3125 19.25 C13.16253433 20.96658046 14.01343642 22.6827315 14.86523438 24.3984375 C17.26940488 29.2531781 19.64399091 34.12171965 22 39 C22.3119632 39.64477295 22.62392639 40.2895459 22.94534302 40.95385742 C26.41568972 48.1646234 29.36884287 55.38120757 31.8125 63 C32.11091797 63.90105469 32.40933594 64.80210937 32.71679688 65.73046875 C36.26093298 76.56288476 38.43954464 89.07610864 34.0390625 100.015625 C29.30297486 109.0604841 22.36995443 115.77138933 12.73046875 119.2421875 C2.63151606 122.04504418 -7.04513962 121.39076526 -16.5078125 116.77734375 C-24.880651 111.68268439 -30.38021586 104.22597267 -33.3359375 94.921875 C-39.92390684 65.93480988 -14.8451377 23.71366152 0 0 Z " fill="#60A2D7" transform="translate(320,357)"/>
<path d="M0 0 C2.81163099 2.48205293 4.31715776 5.18276435 6.0390625 8.49609375 C6.6151123 9.60170654 7.19116211 10.70731934 7.78466797 11.84643555 C8.39894982 13.04302729 9.01237464 14.24005933 9.625 15.4375 C9.9371344 16.04502106 10.2492688 16.65254211 10.57086182 17.2784729 C39.92488764 74.48921544 39.92488764 74.48921544 34.09375 96.40625 C29.93155385 106.97182485 24.17426398 112.99041575 14 118 C6.07337689 121.21231061 -5.00374851 121.72421528 -13 118.375 C-15.05078125 117.25390625 -15.05078125 117.25390625 -17 116 C-17.69480469 115.57589844 -18.38960937 115.15179688 -19.10546875 114.71484375 C-24.50836121 111.07574733 -27.86932509 106.66642406 -31 101 C-31.34160156 100.38511719 -31.68320313 99.77023437 -32.03515625 99.13671875 C-37.90681692 86.38292558 -32.8910659 70.86589809 -28.375 58.41796875 C-10.05263188 10.05263188 -10.05263188 10.05263188 0 0 Z " fill="#60A2D7" transform="translate(234,270)"/>
<path d="M0 0 C3.04137178 2.65145232 3.86892331 4.36844865 4.6875 8.3125 C3.67443275 13.74622433 0.85384716 16.17649809 -3 20 C-4.17150017 21.19440373 -5.34198918 22.38979969 -6.51171875 23.5859375 C-8.99430732 26.10732654 -11.48090851 28.62433097 -13.98828125 31.12109375 C-14.51977783 31.6514624 -15.05127441 32.18183105 -15.59887695 32.72827148 C-17.88575216 34.80395243 -19.16429423 35.01859935 -22.3125 35.375 C-26 35 -26 35 -28.875 32.75 C-31.91465677 28.81632653 -31.91465677 28.81632653 -32 26 C-30.78030801 21.20138205 -29.03626291 18.53973158 -25.53515625 15.07421875 C-24.65279297 14.19572266 -23.77042969 13.31722656 -22.86132812 12.41210938 C-21.93771484 11.51298828 -21.01410156 10.61386719 -20.0625 9.6875 C-19.14275391 8.76904297 -18.22300781 7.85058594 -17.27539062 6.90429688 C-8.2307565 -2.02158932 -8.2307565 -2.02158932 0 0 Z " fill="#FDD020" transform="translate(465,61)"/>
<path d="M0 0 C1.12792969 -0.01933594 2.25585938 -0.03867188 3.41796875 -0.05859375 C11.60034612 -0.01017732 11.60034612 -0.01017732 15.7421875 2.9140625 C18.18436604 6.68044451 18.18436604 6.68044451 18.125 9.625 C18.13789062 10.264375 18.15078125 10.90375 18.1640625 11.5625 C17.00404291 15.16538439 15.61487579 16.42582264 12.5 18.625 C8.32233154 19.37125749 4.23327072 19.32257036 0 19.25 C-1.69189453 19.27900391 -1.69189453 19.27900391 -3.41796875 19.30859375 C-11.60034612 19.26017732 -11.60034612 19.26017732 -15.7421875 16.3359375 C-18.18436604 12.56955549 -18.18436604 12.56955549 -18.125 9.625 C-18.13789063 8.985625 -18.15078125 8.34625 -18.1640625 7.6875 C-15.35578952 -1.03466549 -7.63621984 -0.13090663 0 0 Z " fill="#FDD020" transform="translate(494.5,181.375)"/>
<path d="M0 0 C3.34265205 1.20706879 3.94704566 1.92056849 6 5 C6.467106 9.10974774 6.37034524 13.24157146 6.375 17.375 C6.39949219 18.51195313 6.42398437 19.64890625 6.44921875 20.8203125 C6.47859252 29.16246309 6.47859252 29.16246309 4.15625 33.2265625 C1.33137223 35.54992212 -0.34369091 36 -4 36 C-7.97472063 34.47126129 -9.61853665 33.57219503 -12 30 C-12.4648447 26.05702323 -12.37033791 22.09243699 -12.375 18.125 C-12.39949219 17.03574219 -12.42398437 15.94648437 -12.44921875 14.82421875 C-12.4786627 6.80565038 -12.4786627 6.80565038 -10.1015625 2.8046875 C-6.65410866 -0.15576543 -4.50474335 -0.2702846 0 0 Z " fill="#FDD020" transform="translate(324,17)"/>
</svg>
