<?xml version="1.0" encoding="UTF-8"?>
<svg version="1.1" xmlns="http://www.w3.org/2000/svg" width="512" height="512">
<path d="M0 0 C0.81984375 0.69351563 1.6396875 1.38703125 2.484375 2.1015625 C5.04693846 4.34584578 7.52771949 6.656676 10 9 C10.49612793 9.45826172 10.99225586 9.91652344 11.50341797 10.38867188 C20.78311721 18.99145861 28.14784007 28.37621947 35 39 C35.38526855 39.59393555 35.77053711 40.18787109 36.16748047 40.79980469 C43.12494409 51.71631393 48.93330704 64.38947877 52 77 C53.26676071 77.00364563 54.53352142 77.00729126 55.83866882 77.01104736 C67.77205929 77.04797579 79.70519119 77.10572511 91.63838482 77.18390274 C97.77350122 77.22342523 103.90847305 77.25559043 110.04370117 77.27099609 C115.96367514 77.28613103 121.88325179 77.32052082 127.80304909 77.36830902 C130.06245281 77.3831554 132.32191324 77.39104287 134.58136559 77.39188385 C137.74437278 77.39424539 140.90627472 77.4212607 144.0690918 77.45410156 C145.47279022 77.44655602 145.47279022 77.44655602 146.90484619 77.43885803 C151.12934025 77.50679634 153.40413207 77.62801996 157.05818176 79.90911865 C160.48025181 83.59388291 160.39069807 86.63988656 160.35546875 91.515625 C160 94 160 94 157.6875 97.0625 C153.18794007 100.30636878 149.23586555 100.14343447 143.90140057 100.13142776 C143.06230326 100.1334804 142.22320596 100.13553303 141.35868147 100.13764787 C138.52228419 100.14334177 135.6859351 100.14185768 132.84953308 100.14044189 C130.80531852 100.14302416 128.76110446 100.14603693 126.71689111 100.1494453 C121.08006971 100.15753479 115.44326103 100.15930595 109.80643451 100.16004276 C103.73473764 100.16188992 97.66304742 100.16943551 91.59135437 100.17617798 C77.61341137 100.19048467 63.63547147 100.19628948 49.65752299 100.20086992 C42.75246967 100.20320481 35.84741719 100.20680733 28.94236452 100.2105653 C5.31270082 100.22340118 -18.31696241 100.23412068 -41.94662952 100.2375679 C-43.43028654 100.23778954 -44.91394356 100.23801132 -46.39760057 100.23823325 C-47.88487042 100.23845389 -49.37214026 100.23867438 -50.85941011 100.2388947 C-53.84320374 100.23933726 -56.82699738 100.23978437 -59.81079102 100.24023438 C-60.55059978 100.24034377 -61.29040854 100.24045316 -62.05263575 100.24056586 C-86.04755933 100.24419748 -110.04245271 100.2601213 -134.03736471 100.28342474 C-159.39728957 100.3080089 -184.75719716 100.32174007 -210.11713427 100.32293582 C-212.89984843 100.32310728 -215.68256257 100.32332271 -218.46527672 100.32357025 C-219.49307462 100.3236539 -219.49307462 100.3236539 -220.54163611 100.32373925 C-231.57834916 100.32489089 -242.61503128 100.33592239 -253.65173389 100.35045731 C-264.74041266 100.36480841 -275.82906005 100.36781418 -286.91774777 100.36001733 C-292.92751671 100.35610002 -298.93718134 100.35709299 -304.94693756 100.37107468 C-310.44479955 100.38374883 -315.94247815 100.38267342 -321.44033965 100.37048396 C-323.43294286 100.36851568 -325.42555877 100.37165716 -327.41814408 100.38032833 C-330.12027998 100.39134598 -332.82176007 100.38398602 -335.52387714 100.3719368 C-336.69258072 100.38332959 -336.69258072 100.38332959 -337.88489446 100.39495254 C-342.66060363 100.34877128 -345.96856251 99.58524444 -350 97 C-352.82368571 92.76447144 -352.66653757 88.97522686 -352 84 C-350.20353146 81.06576805 -349.0558929 79.52794645 -346 78 C-344.63153259 77.90843895 -343.25870253 77.87806056 -341.88717651 77.87974548 C-341.02618347 77.87837082 -340.16519043 77.87699615 -339.27810669 77.87557983 C-338.33152191 77.87917511 -337.38493713 77.88277039 -336.40966797 77.88647461 C-335.41451172 77.88632858 -334.41935547 77.88618256 -333.39404297 77.8860321 C-330.09340257 77.88673069 -326.79281808 77.89452056 -323.4921875 77.90234375 C-321.20818106 77.90420812 -318.92417422 77.90563193 -316.64016724 77.90663147 C-310.61988222 77.91045513 -304.59962121 77.92028414 -298.5793457 77.93133545 C-292.43961919 77.94155282 -286.29988881 77.94612979 -280.16015625 77.95117188 C-268.10676027 77.96190652 -256.05338213 77.97898115 -244 78 C-243.87452286 77.39966446 -243.74904572 76.79932892 -243.61976624 76.18080139 C-243.44883957 75.38387375 -243.2779129 74.58694611 -243.10180664 73.76586914 C-242.9350795 72.9799086 -242.76835236 72.19394806 -242.59657288 71.38417053 C-241.63564755 67.54388557 -240.0819933 64.02785666 -238.4375 60.4375 C-238.08671387 59.66446533 -237.73592773 58.89143066 -237.37451172 58.0949707 C-220.0388643 20.57015016 -189.87976672 -8.87781073 -150.96191406 -23.65771484 C-101.46294564 -41.40000801 -40.86816469 -34.72540374 0 0 Z " fill="#000000" transform="translate(352,296)"/>
<path d="M0 0 C2.55318373 2.24648304 5.03335469 4.55371997 7.50390625 6.890625 C8.83228516 8.10492188 8.83228516 8.10492188 10.1875 9.34375 C24.6261674 23.02464336 34.25130172 40.13281141 40.50390625 58.890625 C-41.99609375 58.890625 -124.49609375 58.890625 -209.49609375 58.890625 C-208.62670455 53.67428978 -207.35408179 49.9769426 -204.99609375 45.390625 C-204.46423462 44.34612183 -204.46423462 44.34612183 -203.92163086 43.28051758 C-187.63099218 11.89922826 -161.00963178 -12.59345925 -127.24707031 -23.85986328 C-122.04671439 -25.48869141 -116.80050173 -26.86490895 -111.49609375 -28.109375 C-110.45710938 -28.356875 -109.418125 -28.604375 -108.34765625 -28.859375 C-70.52705351 -36.15986668 -29.20295816 -24.67855619 0 0 Z " fill="#FEB700" transform="translate(340.49609375,315.109375)"/>
<path d="M0 0 C1.90385294 -0.01173486 1.90385294 -0.01173486 3.84616756 -0.02370679 C5.24713201 -0.01722121 6.64809516 -0.01045127 8.04905701 -0.00342751 C9.54314039 -0.006885 11.03722123 -0.01165018 12.53129673 -0.01760924 C16.63359615 -0.03013636 20.73568628 -0.0239411 24.83798647 -0.01465058 C29.26340944 -0.00786744 33.68879623 -0.01833767 38.11421204 -0.02659035 C46.78228703 -0.03993772 55.45028413 -0.03704547 64.11836219 -0.02835242 C71.16241581 -0.02158024 78.20644759 -0.02065714 85.25050354 -0.02392387 C86.75370678 -0.02461342 86.75370678 -0.02461342 88.28727776 -0.0253169 C90.32302817 -0.02627607 92.35877858 -0.02724871 94.39452899 -0.02823468 C113.48859615 -0.03679151 132.58262012 -0.02694983 151.67668021 -0.01083358 C168.06409241 0.00256987 184.45144087 0.00024186 200.83885193 -0.01358986 C219.86409397 -0.02964048 238.88929815 -0.03596751 257.91454601 -0.02675307 C259.94285265 -0.02579741 261.97115929 -0.0248543 263.99946594 -0.02392387 C264.99745966 -0.02346105 265.99545338 -0.02299822 267.02368933 -0.02252137 C274.06015942 -0.01992993 281.09660552 -0.0243058 288.1330719 -0.03136253 C296.70691858 -0.03977197 305.28068285 -0.0375091 313.85452008 -0.0215203 C318.22992696 -0.0136301 322.60519637 -0.01055874 326.98060226 -0.02046776 C330.98508835 -0.02939967 334.98930942 -0.02450673 338.99377143 -0.0085351 C340.44321552 -0.00518091 341.89268195 -0.00689571 343.34211171 -0.01416247 C345.31138219 -0.02327895 347.28071531 -0.01213798 349.24996948 0 C350.3441088 0.00048706 351.43824812 0.00097411 352.56554317 0.00147593 C356.15205131 0.44230716 358.54203759 1.5155482 361.62498474 3.37752342 C364.05304262 6.74547467 364.87923243 9.35665151 364.62498474 13.44002342 C363.89010805 17.65546991 362.03384606 19.76142055 358.62498474 22.37752342 C355.27162717 23.54280057 352.05278293 23.50387636 348.52450657 23.50615788 C347.26560346 23.50938232 346.00670035 23.51260677 344.70964867 23.51592892 C343.30997238 23.51445774 341.9102962 23.51289002 340.51062012 23.51123619 C339.02580264 23.51310392 337.54098565 23.51540447 336.05616945 23.51810151 C331.97028774 23.52423051 327.88442645 23.52408463 323.79854119 23.52290714 C319.39424518 23.52270341 314.98995578 23.52821917 310.58566284 23.53296471 C301.95510523 23.5412776 293.32455444 23.54401983 284.69399316 23.54457708 C277.68087642 23.5450519 270.66776194 23.5471049 263.65464592 23.55027771 C243.78209546 23.55908565 223.90955041 23.56369681 204.03699798 23.56294724 C202.9652548 23.56290728 201.89351163 23.56286732 200.78929138 23.56282616 C199.71624362 23.56278528 198.64319586 23.5627444 197.5376315 23.56270228 C180.13983164 23.56229566 162.74205341 23.5718688 145.34425981 23.58596452 C127.49104157 23.60031541 109.63783389 23.60723543 91.78460974 23.60637075 C81.7570326 23.60603835 71.72947815 23.60880395 61.7019062 23.6195488 C53.16569873 23.62863683 44.62952421 23.63084303 36.093314 23.62403937 C31.73629539 23.6207657 27.37934008 23.62074794 23.02232742 23.62939262 C19.03575873 23.63722115 15.04930391 23.63586378 11.06273811 23.62710849 C9.61863241 23.62556543 8.17451837 23.6274198 6.7304225 23.63296857 C4.77072775 23.64000124 2.8109984 23.63355639 0.85130405 23.62641239 C-0.2382236 23.62662976 -1.32775126 23.62684713 -2.45029491 23.62707108 C-6.50663264 23.28096976 -9.34203957 22.12356142 -12.62501526 19.75252342 C-15.03648683 16.47981201 -15.55887876 13.35357154 -15.37501526 9.37752342 C-14.11485091 5.44877575 -13.19415267 3.87224924 -9.65235996 1.73314989 C-6.14573511 0.28268499 -3.77523021 0.00168055 0 0 Z " fill="#000000" transform="translate(81.37501525878906,420.6224765777588)"/>
<path d="M0 0 C1.21136822 -0.00679667 1.21136822 -0.00679667 2.44720852 -0.01373065 C5.16254598 -0.02642556 7.87768418 -0.02475101 10.5930481 -0.02310181 C12.53609476 -0.02908388 14.47913904 -0.03588868 16.42218018 -0.04345703 C21.70730632 -0.06115692 26.99236774 -0.06581409 32.27752066 -0.0670886 C36.6861792 -0.06898544 41.09482259 -0.07634048 45.50347531 -0.08343279 C55.90313235 -0.09972952 66.30275475 -0.10460058 76.7024231 -0.10317993 C87.43780578 -0.10197816 98.17298753 -0.12308418 108.90831935 -0.15466726 C118.11858248 -0.18080017 127.32877986 -0.19154848 136.53907979 -0.19026911 C142.04288802 -0.1897586 147.54651777 -0.19549104 153.05028915 -0.21662521 C158.22626937 -0.23595731 163.40189991 -0.23616653 168.5778923 -0.22159195 C170.47861744 -0.21949649 172.37936418 -0.2242484 174.28005219 -0.23631287 C176.87315039 -0.25170744 179.46503416 -0.2424961 182.05810547 -0.22705078 C182.81190266 -0.23733791 183.56569986 -0.24762503 184.3423394 -0.25822389 C189.23069744 -0.19379283 191.72810831 0.78377281 195.15603638 4.26742554 C197.63204969 8.43162975 197.3138728 11.63607985 196.15603638 16.26742554 C194.33264585 18.9731018 193.08146201 20.80471272 190.15603638 22.26742554 C187.57279218 22.37172379 185.01611846 22.41522237 182.43232727 22.41459656 C181.22224069 22.42011159 181.22224069 22.42011159 179.98770791 22.42573804 C177.26931562 22.43680054 174.55096151 22.44062304 171.83255005 22.44442749 C169.88965228 22.45069016 167.94675571 22.45733678 166.00386047 22.46434021 C160.71455985 22.48176715 155.42526827 22.49230638 150.13594604 22.50054574 C146.83360813 22.50569182 143.53127306 22.5117677 140.22893715 22.51805687 C129.90314819 22.53711282 119.57736642 22.55134365 109.25156325 22.55966884 C97.31999265 22.56944672 85.3886073 22.59577899 73.457102 22.63616973 C64.2426208 22.66629572 55.02819281 22.68113433 45.8136633 22.68444985 C40.30647499 22.68680417 34.79948449 22.69581429 29.29234886 22.72091103 C24.11229374 22.74413552 18.93256746 22.74844764 13.75247383 22.73814964 C11.85013106 22.73765282 9.9477724 22.74401631 8.04547882 22.75770569 C5.45015424 22.77533886 2.85602081 22.76836123 0.26069641 22.75517273 C-0.4937829 22.76614198 -1.24826222 22.77711122 -2.02560455 22.78841287 C-6.92032758 22.72827679 -9.39630058 21.73371536 -12.84396362 18.26742554 C-15.13250357 14.99808276 -15.3155858 12.19761034 -14.84396362 8.26742554 C-10.93606316 1.26015574 -7.69590312 -0.0314349 0 0 Z " fill="#000000" transform="translate(164.84396362304688,468.7325744628906)"/>
<path d="M0 0 C3.02508145 1.73602105 5.41790069 3.83580137 7 7 C7.12048151 9.06223352 7.17740927 11.12828629 7.20532227 13.19384766 C7.2352401 15.14564438 7.2352401 15.14564438 7.26576233 17.13687134 C7.28274673 18.5626005 7.29962553 19.98833093 7.31640625 21.4140625 C7.33697521 22.86852613 7.35797166 24.32298377 7.37937927 25.7774353 C7.43460604 29.60786088 7.4840126 33.43834045 7.53222656 37.26885986 C7.5824372 41.1766847 7.63812554 45.084431 7.69335938 48.9921875 C7.80094833 56.66139185 7.90239162 64.33066145 8 72 C8.67836914 71.30350342 9.35673828 70.60700684 10.05566406 69.8894043 C11.39709473 68.52682495 11.39709473 68.52682495 12.765625 67.13671875 C13.65024414 66.23397217 14.53486328 65.33122559 15.44628906 64.40112305 C19.45126007 60.6354548 22.4894689 58.94978938 28.125 59.0625 C31.60337741 60.1967535 33.47651576 61.3363222 36 64 C37.80993395 67.99693747 38.30688798 70.02463442 36.98095703 74.23876953 C34.82732379 78.89991217 31.38707501 82.2612845 27.8046875 85.8671875 C27.09780792 86.58738068 26.39092834 87.30757385 25.66262817 88.04959106 C24.17001477 89.56237797 22.67200169 91.06985406 21.16894531 92.57226562 C18.88172265 94.8682516 16.62841332 97.1943205 14.375 99.5234375 C12.91603031 100.99414223 11.45515385 102.46295835 9.9921875 103.9296875 C9.32621552 104.62440155 8.66024353 105.3191156 7.97409058 106.03488159 C3.91546809 110.01669979 0.80991377 112.02510341 -4.97401428 112.19760132 C-11.06349317 111.60367361 -15.29208029 106.04588491 -19.41796875 101.953125 C-20.1164241 101.26369812 -20.81487946 100.57427124 -21.53450012 99.86395264 C-23.00544691 98.40747681 -24.47362947 96.94820465 -25.93920898 95.48632812 C-28.1782313 93.25921938 -30.43522846 91.05145973 -32.69335938 88.84375 C-34.12354328 87.42302916 -35.55261767 86.00119036 -36.98046875 84.578125 C-37.65442184 83.92370422 -38.32837494 83.26928345 -39.02275085 82.59503174 C-43.00461659 78.5744061 -45.14837288 75.6560576 -46 70 C-44.90200951 66.34003169 -43.84781454 63.87704952 -41.1875 61.125 C-37.10861396 59.02728718 -34.21422952 58.69644262 -29.75 59.8125 C-26.08106379 61.53800499 -23.58053722 64.2641239 -20.765625 67.13671875 C-19.87133789 68.04510498 -18.97705078 68.95349121 -18.05566406 69.8894043 C-17.37729492 70.58590088 -16.69892578 71.28239746 -16 72 C-15.99857498 71.19899872 -15.99714996 70.39799744 -15.99568176 69.57272339 C-15.97782452 62.01016589 -15.93613146 54.44828767 -15.86790943 46.8860302 C-15.83367252 42.9984865 -15.80853471 39.11133438 -15.80444336 35.22363281 C-15.80015312 31.46906697 -15.77163236 27.71538395 -15.72656822 23.9610939 C-15.71361603 22.53148676 -15.70927752 21.10177384 -15.71384621 19.67211533 C-15.74474754 7.06208354 -15.74474754 7.06208354 -12.58081055 3.13720703 C-8.58098848 -0.17510423 -5.12884628 -0.8754246 0 0 Z " fill="#000000" transform="translate(260,21)"/>
<path d="M0 0 C4.10176789 1.7414343 7.86655824 3.9667245 11.6875 6.25 C12.70650391 6.83652344 13.72550781 7.42304688 14.77539062 8.02734375 C26.84074394 15.05034208 26.84074394 15.05034208 29.375 19.3125 C30.21219504 22.91243865 29.89539601 25.41841597 29 29 C27.17660948 31.70567626 25.92542564 33.53728718 23 35 C14.64743178 36.13663815 9.43859979 33.09142793 2.37744141 28.81103516 C0.61919724 27.74648666 -1.1547585 26.71329112 -2.93359375 25.68359375 C-12.55585982 19.99419418 -12.55585982 19.99419418 -15 16 C-15.66367922 12.59864398 -15.6069482 9.40994532 -15 6 C-10.80707874 0.59333838 -6.76612565 -1.17389508 0 0 Z " fill="#000000" transform="translate(82,305)"/>
<path d="M0 0 C0.85207031 -0.04898438 1.70414063 -0.09796875 2.58203125 -0.1484375 C7.33415934 0.8062629 9.3199948 4.08647589 11.89233398 7.90722656 C13.82351714 10.96708296 15.66902264 14.06673015 17.5 17.1875 C18.14517578 18.24259766 18.79035156 19.29769531 19.45507812 20.38476562 C22.93551365 26.29598152 25.32022287 30.46929645 24.1875 37.375 C22.64776248 40.47210563 20.31140062 42.81304969 17.1875 44.375 C11.59553714 44.74168609 8.86994828 44.68085245 4.1875 41.375 C1.61098374 37.92961712 -0.46921476 34.21591129 -2.59838867 30.47973633 C-3.61917366 28.6976715 -4.67010327 26.93609608 -5.72460938 25.17382812 C-11.97810682 14.33648625 -11.97810682 14.33648625 -10.8125 7.375 C-7.83465048 1.91560921 -6.10984179 0.23816475 0 0 Z " fill="#000000" transform="translate(152.8125,229.625)"/>
<path d="M0 0 C3.99575683 2.11096587 6.42973419 3.75120406 8 8 C8.40024318 12.54124657 8.371612 17.08747596 8.37060547 21.64404297 C8.37497269 23.86113658 8.41129628 26.07622783 8.44921875 28.29296875 C8.45508894 29.71353491 8.45905698 31.13411046 8.4609375 32.5546875 C8.46915527 33.83843262 8.47737305 35.12217773 8.48583984 36.44482422 C7.91811062 40.59923276 6.5888963 42.74523157 4 46 C0.5905957 48.58644464 -2.8386449 48.36503115 -7 48 C-10.5386994 46.34860695 -11.81070153 45.28394771 -14 42 C-14.2318588 39.30157 -14.35194206 36.70872295 -14.37109375 34.0078125 C-14.38012222 33.22485809 -14.3891507 32.44190369 -14.39845276 31.63522339 C-14.41295339 29.97934796 -14.42184154 28.32341526 -14.42553711 26.66748047 C-14.43742654 24.14061335 -14.48660206 21.61619489 -14.53710938 19.08984375 C-14.54657492 17.47917856 -14.55380933 15.8684984 -14.55859375 14.2578125 C-14.57812607 13.50557404 -14.59765839 12.75333557 -14.61778259 11.978302 C-14.58330723 7.94699846 -14.1720798 6.21090279 -11.59008789 3.04638672 C-7.52627348 -0.16436758 -5.20328241 -0.43360687 0 0 Z " fill="#000000" transform="translate(259,202)"/>
<path d="M0 0 C3.04739688 1.31592138 4.6866919 2.64491749 6.875 5.125 C8.46655687 9.192312 8.72213794 12.93495346 7 17 C2.2970927 22.18115391 -3.88023711 25.53055477 -9.9375 28.875 C-10.79279297 29.37257813 -11.64808594 29.87015625 -12.52929688 30.3828125 C-18.00824031 33.42527689 -21.72946848 34.703624 -28 34 C-30.84124653 32.76467542 -32.42097859 31.7444561 -34.3125 29.3125 C-35.34190439 25.84995797 -35.89095743 22.50152499 -35 19 C-31.05243561 12.92108257 -25.57377446 10.09618027 -19.3125 6.6875 C-18.35021484 6.15060547 -17.38792969 5.61371094 -16.39648438 5.06054688 C-6.50974214 -0.44133845 -6.50974214 -0.44133845 0 0 Z " fill="#000000" transform="translate(435,306)"/>
<path d="M0 0 C3.16519788 0.6470294 4.93853863 2.11462893 7.12109375 4.43359375 C9.0281331 8.24767245 8.72685354 12.28847613 8.12109375 16.43359375 C6.47270704 20.49712421 4.26860342 24.10582761 1.93359375 27.80859375 C1.06637695 29.26458984 1.06637695 29.26458984 0.18164062 30.75 C-5.34218833 39.80034123 -5.34218833 39.80034123 -9.87890625 42.43359375 C-14.22466743 43.44562033 -17.86770323 42.94995274 -21.81640625 40.93359375 C-24.47547797 37.71047652 -25.93652914 34.66167352 -25.87890625 30.43359375 C-23.81645187 24.79805787 -20.94008714 19.5675606 -18.06640625 14.30859375 C-17.65326172 13.52355469 -17.24011719 12.73851562 -16.81445312 11.9296875 C-12.82656316 4.64211047 -8.88038548 -0.49418671 0 0 Z " fill="#000000" transform="translate(359.87890625,231.56640625)"/>
</svg>
